<svg width="288" height="92" viewBox="0 0 288 92" fill="none" xmlns="http://www.w3.org/2000/svg">
<g clip-path="url(#clip0_141_185)">
<path d="M19.1504 79.3162C16.2522 79.6198 13.2739 78.6343 10.76 76.7538C8.83855 75.3155 7.36009 74.9798 5.52935 76.6739C4.74475 77.3984 3.58653 78.0962 2.59911 77.457C1.4996 76.7431 2.09206 75.5179 2.51371 74.5537C3.46911 72.3855 3.05813 70.3825 1.86255 68.4594C0.512183 66.2753 -0.149657 63.9473 0.0264776 61.353C0.346723 56.6278 5.86561 53.2024 10.2583 55.0669C11.1657 55.4505 12.0303 56.0418 12.1851 57.022C12.4146 58.4816 11.0803 58.1567 10.2583 58.471C7.4188 59.5471 6.20721 63.6543 7.60561 67.4046C9.18015 71.6291 12.7295 73.5202 16.7966 73.7173C25.4646 74.1435 33.5081 69.5515 30.3857 58.748C29.1154 54.3584 23.794 50.9118 19.2625 51.7375C17.0742 52.137 15.6011 52.5046 15.6117 49.4521C15.6171 47.6196 13.7917 46.7725 12.3986 45.8882C9.57512 44.0983 6.7623 42.3297 4.40316 39.9112C0.709667 36.1395 -0.213706 31.7766 1.30212 26.8117C1.40353 26.4708 1.45157 26.1138 1.56899 25.7782C5.56138 14.426 13.7116 9.93525 25.7048 12.8386C29.1101 13.6643 32.3072 13.1529 35.627 12.9078C39.6301 12.6095 40.1105 13.2594 38.2904 16.6475C37.1108 18.8423 37.6393 21.0424 37.5165 23.2478C37.255 27.957 34.6663 30.9562 30.5138 31.2758C27.8344 31.4836 26.3346 29.699 27.5462 27.3338C29.1688 24.1641 29.5531 21.5538 25.9717 19.4762C21.5683 16.9192 15.6544 17.0257 12.911 19.8278C10.1569 22.6405 9.66052 27.2379 12.0143 30.2317C14.6083 33.5292 17.2877 36.8321 22.3422 35.8465C24.4558 35.4364 24.8722 36.7202 24.3971 38.3929C23.826 40.4066 24.6373 41.3548 26.4734 42.1965C28.7311 43.2353 30.8928 44.5671 32.8996 46.0321C36.1234 48.3867 37.8474 51.6096 38.4025 55.6263C39.9984 67.2129 33.1452 76.2424 24.4825 78.7728C22.8386 79.2522 21.1947 79.3108 19.1558 79.3108L19.1504 79.3162Z" fill="#544236"/>
<path d="M249.364 56.3138C249.364 52.3398 249.375 48.3657 249.364 44.3917C249.343 36.9123 249.183 29.4277 249.364 21.9537C249.423 19.5884 248.798 18.3365 246.482 17.9636C245.244 17.7665 243.589 18.0382 243.787 15.9979C243.973 14.1014 245.425 13.1159 247.037 13.4515C250.522 14.176 253.693 15.4013 257.466 13.6753C259.372 12.8069 260.461 15.5185 260.658 17.4842C260.786 18.7627 259.633 18.7201 258.886 18.4111C255.385 16.9461 255.129 19.0131 254.979 21.6394C254.216 35.2822 254.12 48.9144 255.267 62.536C255.422 64.3632 254.739 66.6911 258.342 66.3342C260.615 66.1105 259.601 68.204 258.913 69.0617C256.853 71.6241 254.008 71.3151 251.382 70.2976C249.909 69.7276 248.916 69.4506 247.528 70.4628C245.58 71.8798 243.621 71.102 241.967 69.7223C240.456 68.4651 239.965 66.9522 242.5 66.5633C244.742 66.217 244.753 64.7414 244.208 63.5321C241.262 56.9691 239.96 49.3033 232.583 45.5636C231.089 44.8018 231.596 43.8536 232.375 43.0119C233.747 41.531 233.485 40.0287 232.679 38.4359C230.811 34.7602 229.141 30.9725 226.045 27.2915C225.602 30.2907 225.015 32.7678 224.903 35.2662C224.519 44.0294 225.533 52.8192 224.284 61.5771C224.06 63.1592 223.723 65.6577 226.915 64.539C228.041 64.1448 229.039 63.9104 229.653 65.1889C230.283 66.494 230.107 67.7459 228.991 68.7421C228.554 69.131 227.999 69.6477 227.491 69.653C223.766 69.6956 220.094 69.669 216.342 70.2603C214.191 70.5959 213.427 67.7299 213.534 65.6523C213.657 63.2977 215.386 64.0808 216.726 64.4591C218.856 65.061 219.197 63.7932 219.261 62.1737C219.448 57.3153 219.635 52.4516 219.822 47.5933C220.131 39.4108 220.43 31.2336 220.745 23.0511C220.825 20.8936 220.756 19.0291 217.751 18.8799C215.722 18.7787 216.032 17.3137 216.779 16.0299C217.281 15.1722 218.204 14.3199 219.058 14.4956C223.104 15.3107 226.958 13.4675 230.929 13.8191C232.354 13.947 233.96 14.517 234.169 16.1631C234.382 17.8198 232.738 17.7505 231.633 18.0222C229.84 18.4537 229.354 19.4606 229.979 21.1812C232.231 27.3714 235.321 33.2313 239.522 38.1855C241.31 40.2951 242.121 41.7228 242.458 44.4875C243.002 48.9996 245.687 52.9311 249.359 56.3298L249.364 56.3138Z" fill="#544236"/>
<path d="M118.154 43.6615C114.274 43.4111 114.312 40.8328 114.285 38.1266C114.248 34.893 113.596 31.75 112.561 28.7082C110.234 21.8415 105.11 19.7852 97.8349 20.3765C88.0728 21.1756 85.0892 27.3711 83.2798 35.2446C83.1197 35.9371 82.8261 36.635 82.8315 37.3275C82.8528 39.9165 81.9294 41.8716 79.5596 43.1927C78.1986 43.9492 77.6649 45.281 79.2554 46.2878C82.7781 48.5039 82.8955 51.9719 83.504 55.5624C84.9824 64.2723 88.74 69.8232 100.098 69.5462C100.712 69.4876 102.302 69.5195 103.797 69.1573C108.12 68.0972 112.059 66.3286 113.431 61.63C114.226 58.9078 114.589 56.0631 115.118 53.2664C115.63 50.5495 115.32 47.5503 118.469 45.9202C119.393 45.4408 119.932 43.7734 118.154 43.6615ZM105.003 61.321C104.197 64.4534 102.649 66.4031 99.1586 66.3658C96.1216 66.3286 93.3035 64.3309 92.9405 61.044C91.8784 51.3859 91.2966 41.6905 92.8284 32.0057C92.8818 31.6594 93.0259 31.3238 93.1434 30.9882C94.1201 28.1222 95.2623 25.1869 98.8597 25.0697C101.971 24.9738 105.35 28.6762 105.569 32.3147C105.793 36.0916 105.617 39.8845 105.617 43.6722C106.38 49.596 106.508 55.4878 105.003 61.321Z" fill="#544236"/>
<path d="M54.7514 36.5975C54.5219 41.7862 55.061 42.1058 58.7545 40.3425C60.3344 39.586 61.3485 38.2969 62.4106 37.0077C63.2272 36.0168 63.9958 34.5945 65.5383 35.1592C66.9154 35.6599 67.5559 37.3859 67.1396 38.4354C65.7198 42.0206 66.6752 45.2754 67.7053 48.6688C68.0523 49.8142 68.079 51.5881 66.4244 51.9291C64.6844 52.286 64.4815 50.5866 64.0545 49.3827C63.1472 46.8523 57.703 45.041 55.3012 46.5113C54.9596 46.7191 54.5966 47.2412 54.6073 47.6087C54.7461 52.6908 53.353 57.7623 54.6127 62.8551C55.2265 65.3269 56.9024 65.8329 59.1174 65.9501C60.5372 66.0247 62.5067 65.5772 62.5441 68.0011C62.5707 70.0893 61.0336 70.8138 59.3576 71.2826C58.6798 71.4744 57.9112 71.549 57.2227 71.4478C53.9615 70.9577 50.7377 70.7872 47.4445 71.4158C45.6298 71.7621 43.8844 71.0536 42.6355 69.5726C40.8154 67.4151 41.3919 65.4334 44.162 65.1937C47.3164 64.9167 48.2238 63.228 48.2024 60.4898C48.1811 57.8795 48.1917 55.2692 48.2024 52.6589C48.2131 49.9261 47.5299 47.5128 45.2188 45.7549C43.4681 44.4178 43.6549 43.1286 45.2348 41.669C49.6755 37.5777 49.3126 27.8983 44.5303 24.1106C43.0305 22.9227 42.9504 21.8786 44.0339 20.5521C45.1868 19.1404 46.6706 18.1336 48.3679 17.4943C51.0846 16.4662 50.5455 19.3588 51.5597 20.3177C53.3744 22.0437 54.4258 23.7591 57.3934 21.4524C60.3344 19.167 64.3214 18.9593 68.0736 19.3215C71.3668 19.6358 74.4358 19.8116 76.9924 17.0362C78.1347 15.795 79.4904 16.4608 79.01 18.1442C77.9478 21.8413 79.4103 25.1388 80.0935 28.5855C80.6859 31.5793 80.2323 34.2003 77.4355 36.0968C74.6653 37.9719 72.1728 36.4537 69.6375 35.6333C68.554 35.2817 67.9082 34.2589 67.9242 33.1295C67.9348 32.2505 68.8262 32.0588 69.5521 32.1547C71.9005 32.4636 72.872 31.1478 73.0908 29.1448C73.347 26.7742 72.2635 25.0269 70.1125 23.9668C66.9528 22.406 62.021 23.3648 59.0587 25.8686C55.2905 29.0542 54.6927 33.284 54.7674 36.6082L54.7514 36.5975Z" fill="#544236"/>
<path d="M279.43 29.017C279.43 31.036 279.59 33.071 279.392 35.0686C279.083 38.1637 280.07 40.2307 283.075 41.5465C285.6 42.6492 285.066 44.274 282.958 45.3607C281.298 46.2184 280.172 47.3104 280.401 49.2069C281.058 54.582 279.734 59.8186 279.456 65.1245C279.264 68.7629 281.218 70.2119 284.783 69.3968C285.605 69.2104 286.63 68.1929 287.292 69.4288C287.735 70.2598 287.393 71.2241 286.913 72.1297C284.789 76.1304 281.116 77.5687 277.023 75.5817C275.475 74.8305 274.338 74.8572 272.747 75.3579C269.833 76.2742 265.761 74.4097 264.346 71.9326C263.652 70.7233 263.321 69.3755 264.138 68.2408C264.965 67.0955 266.145 67.9212 267.036 68.3847C269.177 69.4981 270.26 68.6297 270.447 66.5521C270.949 60.8947 271.925 55.2532 270.986 49.5372C270.644 47.449 269.924 45.7176 268.045 44.5137C265.729 43.0327 265.665 41.5518 268.472 40.6781C271.109 39.8631 271.883 38.3076 271.573 35.6333C271.135 31.8297 272.411 28.1007 272.539 24.3131C272.593 22.7842 272.673 21.1754 272.272 19.7318C271.626 17.4411 270.458 15.454 267.415 16.4875C266.294 16.8657 265.184 16.8604 264.608 15.7044C264.01 14.5058 264.437 13.4297 265.43 12.5241C266.898 11.1763 268.888 9.9724 270.554 10.3347C274.178 11.1231 277.466 9.99371 280.898 9.63679C282.579 9.461 284.212 9.67941 285.466 11.1231C286.481 12.2897 288.007 13.3765 287.308 15.0598C286.651 16.642 284.981 15.7311 283.812 15.6192C281.154 15.3688 280.001 16.7432 279.803 19.0552C279.526 22.3634 279.456 25.6875 279.296 29.0063C279.339 29.0063 279.387 29.0063 279.43 29.0117V29.017Z" fill="#544236"/>
<path d="M133.697 45.7545C133.697 48.8443 133.51 51.9447 133.734 55.0131C134.22 61.5282 139.52 64.5487 145.487 61.9011C147.227 61.134 147.611 59.8022 147.43 58.1242C147.2 56.0093 146.411 53.9956 146.555 51.8008C146.699 49.6593 145.055 50.5916 144.014 50.6395C143.021 50.6875 141.767 51.6517 141.169 50.2506C140.55 48.807 141.569 47.7735 142.696 46.9958C144.206 45.957 155.271 46.1541 156.818 47.2195C157.502 47.6936 158.302 48.1571 158.11 49.1586C157.891 50.2986 156.872 50.2453 156.109 50.0802C152.404 49.2864 151.791 51.5984 151.705 54.3526C151.615 57.3837 150.91 60.6599 154.587 62.4126C155.217 62.7109 155.682 63.3821 155.34 64.2025C154.988 65.0548 154.182 64.9589 153.493 64.9003C150.008 64.6286 147.03 65.8592 143.961 67.4094C137.561 70.6377 126.876 64.3783 125.942 57.0321C125.749 55.5086 125.845 53.9477 125.776 52.4028C125.664 49.8724 125.44 47.4432 122.926 45.8824C121.565 45.0354 121.197 43.5384 122.873 42.8352C125.893 41.5674 125.771 39.2075 125.824 36.6398C125.979 29.2883 130.761 23.2207 137.305 21.8036C138.741 21.4947 140.144 21.3775 141.553 21.8196C144.937 22.885 148.273 23.3645 151.668 21.7397C152.767 21.2123 154.112 21.3135 154.94 22.4056C155.671 23.3698 154.828 24.1156 154.321 24.92C152.351 28.0577 152.853 32.6071 155.409 35.4358C156.082 36.1763 157.555 36.6984 156.851 37.9343C156.135 39.1915 154.577 38.8079 153.589 38.3551C152.02 37.6413 150.563 38.1047 149.042 38.1527C148.086 38.1846 147.11 37.9289 146.592 36.97C146.01 35.8993 146.715 35.2813 147.398 34.5355C149.821 31.8773 148.887 28.4892 145.364 26.9337C140.785 24.9094 136.125 27.0242 134.54 31.9732C133.099 36.464 133.35 41.1146 133.707 45.7439L133.697 45.7545Z" fill="#544236"/>
<path d="M164.061 20.9518C166.858 22.3528 169.804 22.2889 173.082 21.0903C174.976 20.3977 176.908 22.2676 178.003 23.9936C178.878 25.368 177.869 25.7196 176.514 25.7782C171.769 25.9859 172.046 26.0499 171.71 30.791C171.069 39.7939 171.833 48.7862 171.528 57.7784C171.406 61.3742 173.354 62.7753 178.691 63.1908C181.483 63.4092 185.213 60.9001 185.491 58.4869C185.705 56.6118 184.989 55.232 182.881 54.939C182.011 54.8165 181.125 54.5661 181.264 53.4741C181.381 52.5418 182.193 52.1529 183.057 51.9931C185.192 51.5882 187.044 52.0411 188.619 53.6392C190.193 55.2427 190.834 56.9953 189.91 59.1262C189.393 60.3248 188.864 61.5181 188.25 62.6687C187.466 64.1337 187.071 65.5454 188.384 66.9198C188.923 67.4845 189.238 68.2196 188.838 68.8429C188.416 69.4981 187.391 69.5514 186.879 69.1625C184.274 67.2021 181.499 68.0651 178.68 68.3155C177.191 68.4487 175.51 68.1451 174.138 67.5431C171.939 66.5789 170.109 66.2592 167.819 67.5804C165.46 68.9441 163.421 67.5271 161.996 65.5347C161.216 64.4427 161.142 63.1801 162.818 62.77C164.227 62.4237 164.841 61.5127 164.921 60.2555C165.171 56.3561 166.543 51.9558 165.198 48.6796C163.784 45.2329 163.533 43.5815 165.545 40.1935C167.162 37.4713 166.671 33.0551 166.212 29.3634C165.935 27.1366 164.974 25.5278 162.412 25.4532C161.254 25.4159 159.546 26.4121 159.407 24.196C159.284 22.2622 160.651 21.5378 162.327 21.2288C162.796 21.1435 163.266 21.0796 164.056 20.9571L164.061 20.9518Z" fill="#544236"/>
<path d="M197.911 54.3742C198.552 50.9489 198.717 47.3584 194.575 44.8759C192.296 43.5122 194.164 42.0259 195.493 41.5305C197.703 40.7048 197.746 39.2025 197.783 37.3273C197.847 34.2536 198.237 31.1798 198.328 28.106C198.445 23.9295 197.095 22.6883 192.921 22.8854C192.334 22.9121 191.64 23.1518 191.271 22.5711C190.86 21.9212 191.053 21.1701 191.48 20.5788C192.974 18.5012 195.221 18.0377 197.538 18.2668C199.23 18.4319 200.649 18.5118 202.304 17.6808C204.909 16.3703 209.333 18.0164 210.892 20.4296C211.287 21.0422 211.772 21.6708 211.351 22.374C210.913 23.1092 210.07 22.8854 209.387 22.8108C204.514 22.2728 203.985 22.8002 203.964 27.7278C203.953 30.4447 203.713 33.1668 203.499 35.8784C203.286 38.5686 203.302 41.099 206.008 42.7717C207.647 43.7839 206.814 45.0357 205.677 45.4779C203.387 46.3675 203.734 48.0509 203.729 49.8462C203.713 53.3994 203.318 56.9632 203.457 60.5058C203.612 64.4426 205.058 65.2683 208.682 63.9471C209.264 63.7341 209.862 63.4837 210.374 63.8566C211.073 64.3627 210.886 65.1458 210.63 65.8116C209.6 68.4965 207.385 69.7431 204.732 69.5247C202.325 69.3276 200.025 69.4554 197.666 69.7857C195.84 70.0361 193.978 69.6845 192.734 68.2355C191.848 67.202 190.796 65.2416 193.204 65.1031C197.223 64.8687 197.324 62.2211 197.602 59.4617C197.756 57.9275 197.794 56.3879 197.906 54.3849L197.911 54.3742Z" fill="#544236"/>
<path d="M148.77 86.3428C144.772 84.7181 140.609 83.8977 135.88 84.1427C138.938 82.0172 143.155 82.3102 145.653 84.5689C146.726 85.5438 147.334 84.7873 148.017 84.1108C148.028 82.9281 148.065 81.7402 148.033 80.5575C148.012 79.7904 147.718 78.9541 146.784 79.5507C143.662 81.5484 140.251 80.0195 137.006 80.4563C134.749 80.76 132.373 81.0157 132.501 83.8604C132.619 86.4387 134.93 86.215 136.873 86.3641C139.915 86.5879 142.957 86.9768 146.123 88.4151C141.495 91.0041 137.359 87.1685 133.265 88.9372C133.11 89.0011 132.619 88.5962 132.459 88.3192C131.007 85.7675 128.354 84.3718 126.545 82.1823C123.204 78.1284 122.755 78.3894 118.774 81.7668C116.025 84.1001 115.859 88.8306 111.349 89.39C110.954 89.4379 110.784 90.1038 110.997 90.6099C111.285 91.2758 111.894 91.3504 112.491 91.3077C114.744 91.1319 116.996 90.9348 119.249 90.7164C120.172 90.6312 121.384 90.7164 121.357 89.3793C121.33 88.1115 120.151 88.6016 119.414 88.463C118.886 88.3618 118.101 88.6495 118 87.8557C117.952 87.5095 118.309 86.9501 118.646 86.7371C120.535 85.5331 126.572 86.6252 128.344 88.5483C127.442 88.6868 126.63 88.7667 125.84 88.9425C125.056 89.1183 124.047 89.1716 124.138 90.3435C124.228 91.5262 125.2 91.4409 126.022 91.4249C132.331 91.3024 138.613 92.2666 144.927 91.7393C148.476 91.4409 149.613 89.944 148.77 86.3428ZM122.056 84.2013C121.517 84.2386 120.684 84.0309 120.903 83.4822C121.143 82.8695 121.896 82.0278 122.777 82.2889C123.31 82.4487 124.255 82.9921 124.287 83.7698C123.983 84.5955 122.723 84.1587 122.056 84.2013Z" fill="#544236"/>
<path d="M189.132 88.3667C188.048 88.143 186.692 88.9474 185.902 87.557C184.328 84.7762 181.526 83.2314 179.3 81.1058C176.258 78.1972 174.785 78.5381 172.244 82.0541C170.536 84.4193 169.965 87.5357 167.232 89.2457C166.159 89.9169 166.933 90.8812 167.718 91.1049C169.565 91.6376 171.545 91.7814 173.359 91.0889C174.544 90.6361 175.041 89.6879 173.509 88.8142C172.975 88.5106 171.929 88.5585 172.361 87.4771C172.676 86.694 173.509 86.662 174.181 86.5502C175.238 86.3797 176.322 86.3637 176.871 86.3211C177.992 86.3211 178.595 86.2572 179.177 86.3318C181.136 86.5821 183.847 86.3158 180.517 89.251C179.225 90.3857 180.661 91.3127 181.969 91.286C184.456 91.2274 186.943 90.9983 189.425 90.8012C190.06 90.748 190.61 90.3644 190.567 89.6772C190.519 88.8622 189.927 88.5372 189.132 88.3667ZM175.569 84.2009C175.035 84.2435 174.277 84.2222 174.79 83.4178C175.142 82.8638 175.409 82.0274 176.29 82.2884C176.823 82.4483 178.088 82.8584 178.115 83.6415C177.795 84.4619 176.204 84.1529 175.569 84.2009Z" fill="#544236"/>
<path d="M111.739 79.2357C107.709 78.964 103.658 78.9534 99.6175 78.9054C98.961 78.9001 98.0804 79.0226 97.9362 79.8856C97.8775 80.2319 98.2245 80.8925 98.5394 81.0097C100.744 81.8354 100.189 83.572 100.002 85.5378C99.799 86.9281 100.674 88.9152 98.3579 90.1511C97.3758 90.6731 97.7334 91.9516 99.1318 91.9836C101.267 92.0369 103.418 91.9836 105.553 91.8078C106.337 91.7386 107.261 91.2485 107.085 90.1937C106.866 88.8992 105.889 89.3573 105.126 89.5864C103.855 89.9699 102.985 89.6876 102.815 88.2759C102.606 86.5339 103.957 86.8163 104.966 86.7523C107.218 86.6032 109.492 86.6298 111.728 86.3422C113.82 86.0705 115.181 84.9624 115.149 82.5758C115.117 80.2585 113.596 79.3636 111.739 79.2357ZM107.127 84.3072C105.692 84.3285 102.873 85.5324 102.953 82.7357C103.033 79.9549 105.761 81.4412 106.871 81.1269C109.412 81.2281 112.278 80.6101 112.214 82.9381C112.15 85.1542 108.979 84.2805 107.127 84.3072Z" fill="#544236"/>
<path d="M158.34 91.2115C157.625 91.2595 156.909 91.35 156.194 91.35C155.105 91.35 153.52 92.3356 153.12 90.6895C152.687 88.8942 154.486 89.1819 155.554 88.9475C156.973 88.6332 157.187 87.5518 156.931 86.4917C156.568 84.9894 157.625 82.9971 155.751 82.0328C154.278 81.2817 153.355 82.0861 152.794 83.5777C152.538 84.2596 151.668 84.5046 150.947 84.0838C149.928 83.4818 150.371 82.3791 150.238 81.4948C150.083 80.4986 150.248 79.4332 151.524 79.3852C156.167 79.1988 160.811 79.0336 165.455 79.0283C167.574 79.0283 167.237 80.8609 167.328 82.214C167.392 83.1728 167.349 84.3501 166.116 84.4194C164.686 84.494 163.635 84.0731 164.029 82.0808C164.264 80.8928 162.829 81.2657 162.129 81.2977C161.131 81.3456 159.952 81.1911 159.605 82.6774C158.98 85.325 160.48 88.0259 163.165 88.8196C163.869 89.0274 164.601 89.1765 164.515 90.1354C164.435 91.0464 163.757 91.2755 162.999 91.2861C161.446 91.3181 159.893 91.2968 158.34 91.2968C158.34 91.2701 158.34 91.2435 158.34 91.2168V91.2115Z" fill="#544236"/>
<path d="M137.583 7.13335C137.502 5.38604 139.237 3.30312 136.36 2.81302C135.437 2.65853 135.859 1.61441 136.536 1.24684C138.239 0.314585 139.984 0.682159 141.698 1.31076C142.231 1.50787 142.504 2.22171 142.189 2.40283C139.36 4.05958 141.057 6.65923 140.812 8.80607C140.598 10.6546 139.963 11.1767 138.324 10.2817C135.111 8.52906 131.92 6.74979 128.584 4.90659C127.9 5.80156 127.922 6.66456 128.418 7.49559C128.893 8.29999 130.729 8.4971 129.838 9.8502C129.144 10.8996 127.724 10.7292 126.523 10.7025C125.573 10.6812 124.618 10.7611 123.668 10.7185C123.033 10.6866 122.462 10.3296 122.536 9.64776C122.574 9.28552 123.038 8.70486 123.358 8.67289C126.518 8.34261 125.589 6.39287 125.2 4.50706C124.97 3.39901 124.255 1.98731 125.237 1.13497C126.465 0.0748632 127.724 1.30544 128.786 1.89675C131.77 3.5535 134.663 5.37006 137.593 7.12269L137.583 7.13335Z" fill="#544236"/>
<path d="M147.676 0.532248C149.928 0.740007 152.063 0.409723 152.687 3.49415C152.917 4.6235 154.774 6.8396 156.787 4.53294C157.251 4.00555 158.58 3.37695 156.824 2.56722C155.794 2.0931 156.472 1.24076 157.101 0.99571C159.274 0.143365 161.526 0.0847664 163.773 0.766643C164.286 0.92113 164.633 1.34198 164.472 1.81609C164.344 2.18899 163.907 2.68975 163.57 2.72171C161.185 2.95078 159.818 4.69276 158.334 6.18436C157.037 7.48952 155.073 8.93317 158.729 10.0093C160.122 10.4195 159.589 11.7246 158.409 11.8578C156.546 12.0655 154.71 12.8486 152.773 12.3159C152.116 12.1348 151.214 12.3426 151.076 11.4103C150.942 10.4834 151.716 10.265 152.442 10.1424C154.769 9.7429 154.134 8.44308 153.082 7.45755C151.273 5.75286 149.448 4.01088 147.072 3.05199C146.101 2.65778 144.153 3.20115 144.687 1.34198C145.055 0.074112 146.752 0.718698 147.676 0.532248Z" fill="#544236"/>
<path d="M115.064 0.000444344C116.815 0.431944 117.567 1.85962 116.991 3.18608C116.201 5.00264 116.409 6.43032 117.274 8.02847C117.668 8.76894 117.765 9.72251 117.023 10.3085C116.323 10.8678 115.694 10.138 115.144 9.79176C113.084 8.49726 110.895 7.76744 108.424 7.96987C107.677 8.02847 106.924 7.76211 106.743 6.97369C106.668 6.64341 107.031 5.96686 107.357 5.83368C110.185 4.67769 113.084 3.6602 114.087 0.304092C114.14 0.122969 114.717 0.0963332 115.064 -0.00488281V0.000444344Z" fill="#544236"/>
<path d="M169.874 6.25949C169.682 5.24733 169.479 4.56013 169.436 3.85694C169.383 2.90338 169.426 1.89655 170.568 1.52365C171.598 1.19336 172.057 1.97113 172.511 2.66899C173.482 4.16592 174.881 4.89574 176.642 5.09817C177.32 5.17808 178.168 5.46574 178.115 6.31809C178.056 7.24501 177.101 7.22903 176.45 7.23969C174.566 7.27165 173.487 8.25185 172.537 9.79139C172.041 10.5905 171.523 12.2525 169.911 11.3256C168.486 10.5052 168.743 9.15214 169.159 7.87895C169.372 7.22371 169.709 6.61641 169.869 6.25416L169.874 6.25949Z" fill="#544236"/>
</g>
<defs>
<clipPath id="clip0_141_185">
<rect width="287.5" height="92" fill="white"/>
</clipPath>
</defs>
</svg>
