<svg width="507" height="40" viewBox="0 0 507 40" fill="none" xmlns="http://www.w3.org/2000/svg">
<rect width="507" height="40" fill="#544236"/>
<path d="M61.66 24.66C61.52 24.66 61.39 24.6267 61.27 24.56C61.15 24.4933 61.0533 24.3767 60.98 24.21C60.9133 24.0433 60.8933 23.81 60.92 23.51C60.6867 22.7233 60.4733 21.94 60.28 21.16C60.0933 20.38 59.9167 19.5767 59.75 18.75C59.51 19.2967 59.2933 19.8567 59.1 20.43C58.9067 20.9967 58.7333 21.5333 58.58 22.04C58.4267 22.54 58.2867 22.96 58.16 23.3C58.06 23.6 57.96 23.8233 57.86 23.97C57.76 24.11 57.66 24.2 57.56 24.24C57.4667 24.2867 57.3733 24.31 57.28 24.31C57.0533 24.31 56.88 24.2567 56.76 24.15C56.64 24.0433 56.58 23.85 56.58 23.57C56.58 23.4233 56.62 23.2 56.7 22.9C56.78 22.5933 56.8867 22.2433 57.02 21.85C57.16 21.45 57.32 21.0333 57.5 20.6C57.68 20.16 57.87 19.7333 58.07 19.32C58.27 18.9067 58.47 18.5333 58.67 18.2C58.87 17.86 59.0633 17.59 59.25 17.39C59.4367 17.19 59.6033 17.09 59.75 17.09C59.8767 17.09 59.9933 17.1033 60.1 17.13C60.2067 17.15 60.31 17.21 60.41 17.31C60.51 17.4033 60.6133 17.56 60.72 17.78C60.8067 17.9467 60.8933 18.1867 60.98 18.5C61.0667 18.8067 61.15 19.16 61.23 19.56C61.31 19.9533 61.39 20.3667 61.47 20.8C61.5567 21.2333 61.6433 21.6567 61.73 22.07C61.9833 20.9167 62.1867 19.9033 62.34 19.03C62.5 18.15 62.6167 17.46 62.69 16.96C62.7633 16.46 62.8033 16.1967 62.81 16.17C62.8567 15.9767 62.9067 15.8433 62.96 15.77C63.0133 15.69 63.0733 15.6433 63.14 15.63C63.2067 15.61 63.2833 15.6 63.37 15.6C63.3767 15.6 63.38 15.6 63.38 15.6C63.5533 15.6 63.7233 15.67 63.89 15.81C64.0633 15.95 64.15 16.14 64.15 16.38C64.15 16.46 64.1333 16.64 64.1 16.92C64.0667 17.1933 64.0167 17.54 63.95 17.96C63.89 18.3733 63.81 18.8333 63.71 19.34C63.61 19.84 63.4933 20.3633 63.36 20.91C63.2333 21.45 63.09 21.9867 62.93 22.52C62.77 23.0533 62.5933 23.5533 62.4 24.02C62.2933 24.2867 62.1667 24.46 62.02 24.54C61.88 24.62 61.76 24.66 61.66 24.66ZM68.6875 24.08C68.5075 24.08 68.3108 24.0367 68.0975 23.95C67.8908 23.8567 67.6942 23.7 67.5075 23.48C67.3208 23.26 67.1675 22.9567 67.0475 22.57C66.9275 22.1833 66.8675 21.6933 66.8675 21.1C66.8675 20.66 66.9242 20.2133 67.0375 19.76C67.1575 19.3 67.3442 18.8667 67.5975 18.46C67.8508 18.0533 68.1775 17.7 68.5775 17.4C68.9842 17.1 69.4708 16.89 70.0375 16.77C70.2708 16.7167 70.5375 16.6667 70.8375 16.62C71.1442 16.5667 71.4542 16.52 71.7675 16.48C72.0808 16.4333 72.3775 16.3967 72.6575 16.37C72.9442 16.3433 73.1842 16.33 73.3775 16.33C73.6975 16.33 73.9375 16.3733 74.0975 16.46C74.2575 16.5467 74.3642 16.6467 74.4175 16.76C74.4708 16.8667 74.4975 16.9633 74.4975 17.05C74.4975 17.1567 74.4642 17.2633 74.3975 17.37C74.3375 17.4767 74.1708 17.5467 73.8975 17.58C73.8375 17.5867 73.7108 17.6033 73.5175 17.63C73.3242 17.65 73.0908 17.68 72.8175 17.72C72.5508 17.76 72.2675 17.8033 71.9675 17.85C71.6742 17.89 71.3875 17.9333 71.1075 17.98C70.8342 18.02 70.5975 18.0567 70.3975 18.09C69.9575 18.17 69.6008 18.3033 69.3275 18.49C69.0542 18.67 68.8408 18.8833 68.6875 19.13C68.5408 19.3767 68.4342 19.6367 68.3675 19.91C68.6342 19.85 68.9108 19.79 69.1975 19.73C69.4842 19.67 69.7542 19.6167 70.0075 19.57C70.2675 19.5233 70.4908 19.4867 70.6775 19.46C70.8642 19.4333 70.9908 19.42 71.0575 19.42C71.3175 19.42 71.4742 19.4533 71.5275 19.52C71.5875 19.5867 71.6175 19.69 71.6175 19.83C71.6175 19.9567 71.5042 20.1033 71.2775 20.27C71.0508 20.43 70.6908 20.5933 70.1975 20.76C69.7042 20.9267 69.0575 21.0733 68.2575 21.2C68.2575 21.2067 68.2575 21.21 68.2575 21.21C68.2442 21.3433 68.2342 21.4967 68.2275 21.67C68.2208 21.8367 68.2175 22.0033 68.2175 22.17C68.2175 22.3367 68.2275 22.4733 68.2475 22.58C68.2675 22.6867 68.3042 22.74 68.3575 22.74C68.5042 22.74 68.7075 22.71 68.9675 22.65C69.2275 22.59 69.5008 22.5167 69.7875 22.43C70.0742 22.3433 70.3408 22.26 70.5875 22.18C70.8342 22.0933 71.0142 22.0267 71.1275 21.98C71.2942 21.9133 71.4608 21.8467 71.6275 21.78C71.8008 21.7133 71.9375 21.68 72.0375 21.68C72.1375 21.68 72.2242 21.72 72.2975 21.8C72.3708 21.8733 72.3942 21.9867 72.3675 22.14C72.3608 22.2067 72.2908 22.3167 72.1575 22.47C72.0308 22.6167 71.8542 22.7833 71.6275 22.97C71.4075 23.15 71.1442 23.3267 70.8375 23.5C70.5375 23.6667 70.2042 23.8067 69.8375 23.92C69.4775 24.0267 69.0942 24.08 68.6875 24.08ZM76.8032 17.91C76.4832 17.91 76.2465 17.88 76.0932 17.82C75.9465 17.7533 75.8499 17.6767 75.8032 17.59C75.7632 17.4967 75.7432 17.4133 75.7432 17.34C75.7432 17.2467 75.7965 17.14 75.9032 17.02C76.0099 16.8933 76.2165 16.8 76.5232 16.74C76.8299 16.6733 77.1932 16.6133 77.6132 16.56C78.0332 16.5 78.4799 16.45 78.9532 16.41C79.4265 16.3633 79.9065 16.3233 80.3932 16.29C80.8799 16.2567 81.3432 16.2333 81.7832 16.22C82.2232 16.2 82.6132 16.19 82.9532 16.19C83.3065 16.19 83.5799 16.21 83.7732 16.25C83.9665 16.29 84.1032 16.34 84.1832 16.4C84.2699 16.46 84.3199 16.5233 84.3332 16.59C84.3532 16.6567 84.3632 16.72 84.3632 16.78C84.3632 16.7933 84.3632 16.8033 84.3632 16.81C84.3632 16.89 84.3432 16.9767 84.3032 17.07C84.2699 17.1633 84.1932 17.2433 84.0732 17.31C83.9532 17.37 83.7732 17.4 83.5332 17.4C83.4465 17.4 83.2532 17.4133 82.9532 17.44C82.6532 17.4667 82.2865 17.5 81.8532 17.54C81.4199 17.58 80.9599 17.62 80.4732 17.66C80.3999 17.96 80.3165 18.31 80.2232 18.71C80.1365 19.11 80.0465 19.53 79.9532 19.97C79.8665 20.41 79.7832 20.8433 79.7032 21.27C79.6232 21.69 79.5565 22.08 79.5032 22.44C79.4499 22.7933 79.4132 23.0833 79.3932 23.31C79.3665 23.6167 79.2765 23.8333 79.1232 23.96C78.9765 24.08 78.8299 24.14 78.6832 24.14C78.5765 24.14 78.4699 24.1167 78.3632 24.07C78.2565 24.03 78.1699 23.94 78.1032 23.8C78.0365 23.6533 78.0032 23.4367 78.0032 23.15C78.0032 22.8567 78.0299 22.4967 78.0832 22.07C78.1365 21.6367 78.2065 21.1733 78.2932 20.68C78.3865 20.1867 78.4899 19.69 78.6032 19.19C78.7232 18.69 78.8465 18.2233 78.9732 17.79C78.5265 17.8233 78.1132 17.8533 77.7332 17.88C77.3532 17.9 77.0432 17.91 76.8032 17.91ZM95.5959 24.34C95.3759 24.34 95.1625 24.3133 94.9559 24.26C94.7492 24.2133 94.5625 24.1 94.3959 23.92C94.2292 23.74 94.0925 23.46 93.9859 23.08C93.8792 22.6933 93.8159 22.17 93.7959 21.51C93.5159 21.9967 93.2059 22.4333 92.8659 22.82C92.5325 23.2067 92.1959 23.5133 91.8559 23.74C91.5225 23.96 91.2092 24.07 90.9159 24.07C90.6225 24.07 90.3559 23.9967 90.1159 23.85C89.8825 23.7033 89.6959 23.4567 89.5559 23.11C89.4225 22.7633 89.3559 22.2933 89.3559 21.7C89.3559 21.24 89.3959 20.7733 89.4759 20.3C89.5559 19.82 89.6592 19.3633 89.7859 18.93C89.9125 18.49 90.0492 18.0967 90.1959 17.75C90.3425 17.4033 90.4859 17.13 90.6259 16.93C90.7725 16.73 90.8992 16.63 91.0059 16.63C91.2592 16.63 91.4459 16.6967 91.5659 16.83C91.6859 16.9567 91.7459 17.12 91.7459 17.32C91.7459 17.4067 91.7092 17.5767 91.6359 17.83C91.5625 18.0767 91.4725 18.3767 91.3659 18.73C91.2592 19.0767 91.1492 19.45 91.0359 19.85C90.9292 20.2433 90.8392 20.6333 90.7659 21.02C90.6925 21.4067 90.6559 21.76 90.6559 22.08C90.6559 22.2133 90.6659 22.3267 90.6859 22.42C90.7125 22.5067 90.7592 22.55 90.8259 22.55C91.1792 22.55 91.5059 22.4167 91.8059 22.15C92.1125 21.8767 92.3925 21.5167 92.6459 21.07C92.9059 20.6167 93.1359 20.12 93.3359 19.58C93.5425 19.0333 93.7259 18.4867 93.8859 17.94C93.8725 17.82 93.8625 17.7033 93.8559 17.59C93.8559 17.4767 93.8559 17.3533 93.8559 17.22C93.8559 17.0733 93.9125 16.9167 94.0259 16.75C94.1392 16.5833 94.2759 16.4433 94.4359 16.33C94.6025 16.21 94.7592 16.15 94.9059 16.15C95.0725 16.15 95.2092 16.2033 95.3159 16.31C95.4292 16.4167 95.4859 16.6033 95.4859 16.87C95.4859 17.09 95.4759 17.2733 95.4559 17.42C95.4425 17.56 95.4192 17.6933 95.3859 17.82C95.3592 17.9467 95.3292 18.09 95.2959 18.25C95.2692 18.4033 95.2392 18.6033 95.2059 18.85C95.1792 19.0967 95.1559 19.4133 95.1359 19.8C95.1225 20.1867 95.1159 20.6733 95.1159 21.26C95.1159 21.3 95.1159 21.34 95.1159 21.38C95.1159 21.4133 95.1159 21.45 95.1159 21.49C95.1092 21.6767 95.1125 21.8667 95.1259 22.06C95.1392 22.2533 95.1892 22.4133 95.2759 22.54C95.3625 22.6667 95.5159 22.73 95.7359 22.73C95.9759 22.73 96.2025 22.5767 96.4159 22.27C96.6292 21.9633 96.8192 21.5367 96.9859 20.99C97.1525 20.4367 97.2959 19.79 97.4159 19.05C97.5359 18.3033 97.6259 17.4967 97.6859 16.63C97.7059 16.3367 97.7559 16.1167 97.8359 15.97C97.9225 15.8233 98.0192 15.7267 98.1259 15.68C98.2325 15.6267 98.3259 15.6 98.4059 15.6C98.4859 15.6 98.5825 15.6133 98.6959 15.64C98.8092 15.6667 98.9092 15.7433 98.9959 15.87C99.0825 15.9967 99.1259 16.21 99.1259 16.51C99.1259 17.6567 99.0425 18.6633 98.8759 19.53C98.7092 20.3967 98.4925 21.1367 98.2259 21.75C97.9592 22.3633 97.6659 22.86 97.3459 23.24C97.0325 23.62 96.7225 23.8967 96.4159 24.07C96.1092 24.25 95.8359 24.34 95.5959 24.34ZM102.194 17.91C101.874 17.91 101.637 17.88 101.484 17.82C101.337 17.7533 101.24 17.6767 101.194 17.59C101.154 17.4967 101.134 17.4133 101.134 17.34C101.134 17.2467 101.187 17.14 101.294 17.02C101.4 16.8933 101.607 16.8 101.914 16.74C102.22 16.6733 102.584 16.6133 103.004 16.56C103.424 16.5 103.87 16.45 104.344 16.41C104.817 16.3633 105.297 16.3233 105.784 16.29C106.27 16.2567 106.734 16.2333 107.174 16.22C107.614 16.2 108.004 16.19 108.344 16.19C108.697 16.19 108.97 16.21 109.164 16.25C109.357 16.29 109.494 16.34 109.574 16.4C109.66 16.46 109.71 16.5233 109.724 16.59C109.744 16.6567 109.754 16.72 109.754 16.78C109.754 16.7933 109.754 16.8033 109.754 16.81C109.754 16.89 109.734 16.9767 109.694 17.07C109.66 17.1633 109.584 17.2433 109.464 17.31C109.344 17.37 109.164 17.4 108.924 17.4C108.837 17.4 108.644 17.4133 108.344 17.44C108.044 17.4667 107.677 17.5 107.244 17.54C106.81 17.58 106.35 17.62 105.864 17.66C105.79 17.96 105.707 18.31 105.614 18.71C105.527 19.11 105.437 19.53 105.344 19.97C105.257 20.41 105.174 20.8433 105.094 21.27C105.014 21.69 104.947 22.08 104.894 22.44C104.84 22.7933 104.804 23.0833 104.784 23.31C104.757 23.6167 104.667 23.8333 104.514 23.96C104.367 24.08 104.22 24.14 104.074 24.14C103.967 24.14 103.86 24.1167 103.754 24.07C103.647 24.03 103.56 23.94 103.494 23.8C103.427 23.6533 103.394 23.4367 103.394 23.15C103.394 22.8567 103.42 22.4967 103.474 22.07C103.527 21.6367 103.597 21.1733 103.684 20.68C103.777 20.1867 103.88 19.69 103.994 19.19C104.114 18.69 104.237 18.2233 104.364 17.79C103.917 17.8233 103.504 17.8533 103.124 17.88C102.744 17.9 102.434 17.91 102.194 17.91ZM109.574 24.26C109.368 24.26 109.174 24.1967 108.994 24.07C108.814 23.9433 108.724 23.7367 108.724 23.45C108.724 23.23 108.781 23.0533 108.894 22.92C109.008 22.78 109.138 22.6767 109.284 22.61C109.438 22.5433 109.568 22.51 109.674 22.51C109.788 22.51 109.914 22.5367 110.054 22.59C110.201 22.6367 110.328 22.7267 110.434 22.86C110.541 22.9867 110.594 23.17 110.594 23.41C110.594 23.6433 110.494 23.8433 110.294 24.01C110.101 24.1767 109.861 24.26 109.574 24.26ZM119.143 24.77C119.029 24.77 118.926 24.7533 118.833 24.72C118.746 24.6933 118.673 24.6367 118.613 24.55C118.339 24.5967 118.069 24.6333 117.803 24.66C117.536 24.6867 117.286 24.7 117.053 24.7C116.853 24.7 116.696 24.65 116.583 24.55C116.469 24.4567 116.413 24.3233 116.413 24.15C116.413 24.05 116.469 23.9367 116.583 23.81C116.696 23.6833 116.906 23.5633 117.213 23.45C117.519 23.33 117.966 23.2367 118.553 23.17C118.599 22.8567 118.669 22.4867 118.763 22.06C118.856 21.6267 118.969 21.1667 119.103 20.68C119.236 20.1867 119.393 19.7 119.573 19.22C119.326 19.48 119.066 19.7 118.793 19.88C118.526 20.06 118.269 20.1967 118.023 20.29C117.783 20.3833 117.576 20.43 117.403 20.43C117.263 20.43 117.146 20.4067 117.053 20.36C116.966 20.3133 116.923 20.2267 116.923 20.1C116.923 19.94 116.999 19.7933 117.153 19.66C117.306 19.52 117.473 19.3833 117.653 19.25C117.926 19.0433 118.219 18.7967 118.533 18.51C118.853 18.2233 119.149 17.9167 119.423 17.59C119.703 17.2633 119.919 16.9433 120.073 16.63C120.146 16.49 120.226 16.38 120.313 16.3C120.399 16.2133 120.539 16.17 120.733 16.17C120.926 16.17 121.066 16.2567 121.153 16.43C121.239 16.5967 121.283 16.7967 121.283 17.03C121.283 17.1233 121.256 17.3167 121.203 17.61C121.149 17.8967 121.076 18.25 120.983 18.67C120.889 19.0833 120.786 19.54 120.673 20.04C120.559 20.5333 120.443 21.04 120.323 21.56C120.203 22.08 120.089 22.5833 119.983 23.07C120.203 23.0633 120.429 23.06 120.663 23.06C120.943 23.06 121.186 23.0833 121.393 23.13C121.599 23.1767 121.703 23.2767 121.703 23.43C121.703 23.59 121.633 23.71 121.493 23.79C121.359 23.8633 121.196 23.93 121.003 23.99C120.823 24.0433 120.619 24.1 120.393 24.16C120.166 24.2267 119.926 24.2867 119.673 24.34C119.606 24.4933 119.526 24.6033 119.433 24.67C119.339 24.7367 119.243 24.77 119.143 24.77ZM126.587 24.67C126.281 24.67 125.991 24.5867 125.717 24.42C125.451 24.26 125.221 24.0333 125.027 23.74C124.834 23.4467 124.697 23.1 124.617 22.7C124.551 22.7333 124.497 22.75 124.457 22.75C124.444 22.75 124.424 22.75 124.397 22.75C124.337 22.7567 124.281 22.7533 124.227 22.74C124.174 22.7267 124.127 22.6833 124.087 22.61C124.054 22.53 124.037 22.3933 124.037 22.2C124.037 22.0067 124.091 21.8067 124.197 21.6C124.311 21.3933 124.464 21.1933 124.657 21C124.784 20.5333 124.991 20.0833 125.277 19.65C125.564 19.21 125.897 18.8 126.277 18.42C126.657 18.0333 127.054 17.6833 127.467 17.37C127.887 17.0567 128.294 16.79 128.687 16.57C129.081 16.3433 129.431 16.17 129.737 16.05C130.044 15.9233 130.277 15.86 130.437 15.86C130.804 15.86 130.987 16.0367 130.987 16.39C130.987 16.4567 130.884 16.5533 130.677 16.68C130.471 16.8 130.197 16.9567 129.857 17.15C129.524 17.3433 129.161 17.5733 128.767 17.84C128.381 18.1067 128.001 18.4133 127.627 18.76C127.254 19.1067 126.927 19.4933 126.647 19.92C126.874 19.86 127.107 19.8133 127.347 19.78C127.594 19.7467 127.847 19.73 128.107 19.73C128.561 19.73 128.921 19.87 129.187 20.15C129.454 20.4233 129.587 20.8267 129.587 21.36C129.587 21.78 129.497 22.1867 129.317 22.58C129.137 22.9733 128.897 23.33 128.597 23.65C128.304 23.9633 127.981 24.21 127.627 24.39C127.274 24.5767 126.927 24.67 126.587 24.67ZM125.987 21.66C125.961 21.8467 125.947 22.0333 125.947 22.22C125.947 22.4867 126.011 22.7167 126.137 22.91C126.264 23.1033 126.427 23.2 126.627 23.2C126.847 23.2 127.061 23.1433 127.267 23.03C127.481 22.9167 127.674 22.7667 127.847 22.58C128.021 22.3867 128.157 22.1733 128.257 21.94C128.357 21.7067 128.407 21.47 128.407 21.23C128.407 21.1433 128.394 21.07 128.367 21.01C128.341 20.95 128.284 20.92 128.197 20.92C127.757 20.92 127.351 20.9933 126.977 21.14C126.611 21.2867 126.281 21.46 125.987 21.66ZM135.412 24.24C134.905 24.24 134.455 24.11 134.062 23.85C133.669 23.59 133.359 23.23 133.132 22.77C132.912 22.3033 132.802 21.77 132.802 21.17C132.802 20.7233 132.892 20.29 133.072 19.87C133.252 19.4433 133.452 19.07 133.672 18.75C133.645 18.65 133.632 18.5267 133.632 18.38C133.632 18.2 133.705 17.9933 133.852 17.76C133.999 17.5267 134.202 17.3 134.462 17.08C134.729 16.86 135.039 16.6767 135.392 16.53C135.752 16.3833 136.142 16.31 136.562 16.31C137.215 16.31 137.765 16.4433 138.212 16.71C138.659 16.9767 138.995 17.3267 139.222 17.76C139.455 18.1933 139.572 18.6633 139.572 19.17C139.572 19.9033 139.452 20.58 139.212 21.2C138.972 21.82 138.652 22.3567 138.252 22.81C137.852 23.2633 137.405 23.6167 136.912 23.87C136.419 24.1167 135.919 24.24 135.412 24.24ZM135.532 17.97C135.539 17.99 135.542 18.01 135.542 18.03C135.542 18.0967 135.529 18.17 135.502 18.25C135.475 18.3233 135.422 18.3967 135.342 18.47C135.209 18.6033 135.075 18.79 134.942 19.03C134.809 19.2633 134.685 19.5233 134.572 19.81C134.465 20.0967 134.379 20.39 134.312 20.69C134.245 20.99 134.212 21.2767 134.212 21.55C134.212 21.9233 134.299 22.2333 134.472 22.48C134.652 22.7267 134.932 22.85 135.312 22.85C135.632 22.85 135.935 22.7767 136.222 22.63C136.509 22.4767 136.772 22.2733 137.012 22.02C137.252 21.76 137.459 21.4733 137.632 21.16C137.805 20.84 137.939 20.5167 138.032 20.19C138.132 19.8567 138.182 19.54 138.182 19.24C138.182 18.96 138.122 18.7 138.002 18.46C137.889 18.22 137.722 18.0267 137.502 17.88C137.282 17.7267 137.009 17.65 136.682 17.65C136.442 17.65 136.225 17.68 136.032 17.74C135.845 17.8 135.679 17.8767 135.532 17.97ZM143.14 24.22C142.853 24.22 142.593 24.1467 142.36 24C142.133 23.86 141.953 23.6867 141.82 23.48C141.686 23.2667 141.62 23.0567 141.62 22.85C141.62 22.71 141.7 22.52 141.86 22.28C142.026 22.04 142.25 21.77 142.53 21.47C142.81 21.1633 143.126 20.84 143.48 20.5C143.833 20.1533 144.2 19.8 144.58 19.44C145.006 19.0333 145.43 18.6467 145.85 18.28C146.27 17.9067 146.646 17.58 146.98 17.3C146.493 17.3733 146.016 17.45 145.55 17.53C145.09 17.61 144.69 17.6767 144.35 17.73C144.016 17.7767 143.796 17.8 143.69 17.8C143.483 17.8 143.32 17.7467 143.2 17.64C143.08 17.5333 143.02 17.38 143.02 17.18C143.02 17.0533 143.113 16.94 143.3 16.84C143.493 16.74 143.743 16.65 144.05 16.57C144.363 16.4833 144.703 16.41 145.07 16.35C145.443 16.2833 145.816 16.23 146.19 16.19C146.563 16.1433 146.906 16.11 147.22 16.09C147.533 16.07 147.783 16.06 147.97 16.06C148.276 16.06 148.513 16.13 148.68 16.27C148.853 16.4033 148.94 16.5933 148.94 16.84C148.94 16.9133 148.843 17.0567 148.65 17.27C148.456 17.4833 148.196 17.75 147.87 18.07C147.543 18.3833 147.176 18.73 146.77 19.11C146.363 19.49 145.95 19.8833 145.53 20.29C145.156 20.65 144.79 20.9967 144.43 21.33C144.07 21.6633 143.753 21.9667 143.48 22.24C143.213 22.5067 143.023 22.7233 142.91 22.89C143.043 22.8833 143.236 22.86 143.49 22.82C143.75 22.78 144.043 22.7333 144.37 22.68C144.703 22.62 145.04 22.56 145.38 22.5C145.72 22.44 146.043 22.3833 146.35 22.33C146.656 22.2767 146.916 22.2333 147.13 22.2C147.343 22.1667 147.483 22.15 147.55 22.15C147.736 22.15 147.886 22.1967 148 22.29C148.113 22.3767 148.17 22.5067 148.17 22.68C148.17 22.7933 148.083 22.9133 147.91 23.04C147.736 23.16 147.503 23.2767 147.21 23.39C146.916 23.5033 146.59 23.61 146.23 23.71C145.87 23.81 145.5 23.9 145.12 23.98C144.746 24.0533 144.386 24.11 144.04 24.15C143.693 24.1967 143.393 24.22 143.14 24.22ZM155.165 24.71C155.165 24.6033 155.205 24.5033 155.285 24.41C155.365 24.3233 155.538 24.2467 155.805 24.18C155.851 23.8733 155.918 23.4867 156.005 23.02C156.098 22.5533 156.201 22.04 156.315 21.48C156.428 20.92 156.541 20.34 156.655 19.74C156.768 19.14 156.871 18.5467 156.965 17.96C157.058 17.3733 157.135 16.8267 157.195 16.32C157.228 16.0667 157.321 15.86 157.475 15.7C157.635 15.54 157.905 15.42 158.285 15.34C158.671 15.26 159.215 15.22 159.915 15.22C160.201 15.22 160.431 15.2633 160.605 15.35C160.785 15.4367 160.875 15.5833 160.875 15.79C160.875 15.9767 160.801 16.13 160.655 16.25C160.508 16.3633 160.338 16.42 160.145 16.42H158.565C158.551 16.42 158.541 16.42 158.535 16.42C158.335 17.86 158.095 19.21 157.815 20.47C157.541 21.7233 157.275 22.9133 157.015 24.04C157.281 24.0267 157.578 24.02 157.905 24.02C158.178 24.02 158.398 24.0533 158.565 24.12C158.738 24.1867 158.825 24.3067 158.825 24.48C158.825 24.6267 158.781 24.7533 158.695 24.86C158.608 24.9667 158.495 25.0367 158.355 25.07C158.315 25.0833 158.205 25.0967 158.025 25.11C157.845 25.13 157.638 25.1467 157.405 25.16C157.171 25.1733 156.951 25.1867 156.745 25.2C156.671 25.4 156.588 25.5367 156.495 25.61C156.408 25.69 156.328 25.73 156.255 25.73C156.028 25.73 155.871 25.55 155.785 25.19C155.371 25.13 155.165 24.97 155.165 24.71ZM164.656 24.78C164.423 24.78 164.253 24.7 164.146 24.54C164.046 24.3867 163.996 24.1867 163.996 23.94C163.996 23.6733 164.016 23.4367 164.056 23.23C164.103 23.0233 164.156 22.8133 164.216 22.6C163.89 22.6267 163.56 22.6533 163.226 22.68C162.893 22.7 162.56 22.7167 162.226 22.73C162.106 22.8233 161.98 22.8967 161.846 22.95C161.713 23.0033 161.56 23.03 161.386 23.03C161.133 23.03 160.933 22.9767 160.786 22.87C160.64 22.7633 160.566 22.5933 160.566 22.36C160.566 22.0933 160.646 21.8967 160.806 21.77C160.973 21.6367 161.183 21.5433 161.436 21.49C161.77 21.0833 162.133 20.6767 162.526 20.27C162.92 19.8633 163.31 19.46 163.696 19.06C164.083 18.66 164.43 18.2667 164.736 17.88C165.05 17.4867 165.286 17.1033 165.446 16.73C165.526 16.5433 165.636 16.4133 165.776 16.34C165.923 16.26 166.08 16.22 166.246 16.22C166.48 16.22 166.636 16.31 166.716 16.49C166.803 16.67 166.846 16.8867 166.846 17.14C166.846 17.2 166.823 17.3533 166.776 17.6C166.73 17.84 166.663 18.15 166.576 18.53C166.496 18.9033 166.403 19.32 166.296 19.78C166.196 20.2333 166.093 20.7033 165.986 21.19C166.426 21.1433 166.806 21.1067 167.126 21.08C167.446 21.0467 167.65 21.03 167.736 21.03C167.93 21.03 168.086 21.05 168.206 21.09C168.326 21.13 168.386 21.23 168.386 21.39C168.386 21.5367 168.293 21.66 168.106 21.76C167.926 21.8533 167.73 21.9367 167.516 22.01C167.303 22.0833 167.046 22.1567 166.746 22.23C166.446 22.3033 166.096 22.37 165.696 22.43C165.63 22.7033 165.563 22.9633 165.496 23.21C165.43 23.4567 165.366 23.74 165.306 24.06C165.26 24.2733 165.19 24.4467 165.096 24.58C165.01 24.7133 164.863 24.78 164.656 24.78ZM165.016 19.27C164.69 19.67 164.35 20.07 163.996 20.47C163.65 20.8633 163.316 21.22 162.996 21.54C163.243 21.5067 163.493 21.4767 163.746 21.45C164.006 21.4233 164.266 21.3967 164.526 21.37L165.016 19.27ZM170.606 24.78C170.353 24.78 170.126 24.71 169.926 24.57C169.733 24.4367 169.636 24.2367 169.636 23.97C169.636 23.7233 169.71 23.5467 169.856 23.44C170.003 23.3267 170.2 23.27 170.446 23.27C170.546 23.27 170.646 23.2833 170.746 23.31C170.846 23.33 171.033 23.3567 171.306 23.39C171.766 23.1567 172.173 22.93 172.526 22.71C172.88 22.4833 173.156 22.26 173.356 22.04C173.556 21.8133 173.656 21.5833 173.656 21.35C173.656 21.13 173.57 21 173.396 20.96C173.23 20.9133 173.026 20.8867 172.786 20.88C172.76 20.88 172.73 20.88 172.696 20.88C172.67 20.8733 172.64 20.87 172.606 20.87C172.266 20.85 171.946 20.81 171.646 20.75C171.353 20.6833 171.113 20.5667 170.926 20.4C170.74 20.2267 170.646 19.97 170.646 19.63C170.646 19.25 170.696 18.8767 170.796 18.51C170.896 18.1367 171.023 17.7933 171.176 17.48C171.116 17.4267 171.08 17.3633 171.066 17.29C171.06 17.21 171.056 17.13 171.056 17.05C171.056 16.97 171.116 16.89 171.236 16.81C171.356 16.73 171.52 16.65 171.726 16.57C171.9 16.3367 172.066 16.1533 172.226 16.02C172.386 15.88 172.513 15.81 172.606 15.81C172.72 15.81 172.82 15.8467 172.906 15.92C173 15.9933 173.07 16.0867 173.116 16.2C173.516 16.12 173.933 16.0567 174.366 16.01C174.806 15.9633 175.233 15.94 175.646 15.94C175.886 15.94 176.103 15.96 176.296 16C176.496 16.0333 176.653 16.1033 176.766 16.21C176.886 16.31 176.946 16.4667 176.946 16.68C176.946 16.86 176.886 16.9933 176.766 17.08C176.653 17.16 176.5 17.2033 176.306 17.21C175.92 17.2167 175.506 17.2467 175.066 17.3C174.626 17.3533 174.193 17.4133 173.766 17.48C173.346 17.54 172.97 17.5867 172.636 17.62C172.53 17.8133 172.426 18.0133 172.326 18.22C172.233 18.42 172.153 18.6067 172.086 18.78C172.026 18.9533 171.996 19.0933 171.996 19.2C171.996 19.3867 172.076 19.5 172.236 19.54C172.396 19.58 172.586 19.6067 172.806 19.62C173.066 19.64 173.326 19.6733 173.586 19.72C173.846 19.76 174.083 19.8333 174.296 19.94C174.516 20.0467 174.693 20.2067 174.826 20.42C174.96 20.6267 175.026 20.9033 175.026 21.25C175.026 21.5767 174.933 21.9067 174.746 22.24C174.566 22.5733 174.32 22.8933 174.006 23.2C173.7 23.5 173.353 23.7667 172.966 24C172.586 24.24 172.19 24.43 171.776 24.57C171.37 24.71 170.98 24.78 170.606 24.78ZM181.326 24.78C181.093 24.78 180.923 24.7 180.816 24.54C180.716 24.3867 180.666 24.1867 180.666 23.94C180.666 23.6733 180.686 23.4367 180.726 23.23C180.773 23.0233 180.826 22.8133 180.886 22.6C180.559 22.6267 180.229 22.6533 179.896 22.68C179.563 22.7 179.229 22.7167 178.896 22.73C178.776 22.8233 178.649 22.8967 178.516 22.95C178.383 23.0033 178.229 23.03 178.056 23.03C177.803 23.03 177.603 22.9767 177.456 22.87C177.309 22.7633 177.236 22.5933 177.236 22.36C177.236 22.0933 177.316 21.8967 177.476 21.77C177.643 21.6367 177.853 21.5433 178.106 21.49C178.439 21.0833 178.803 20.6767 179.196 20.27C179.589 19.8633 179.979 19.46 180.366 19.06C180.753 18.66 181.099 18.2667 181.406 17.88C181.719 17.4867 181.956 17.1033 182.116 16.73C182.196 16.5433 182.306 16.4133 182.446 16.34C182.593 16.26 182.749 16.22 182.916 16.22C183.149 16.22 183.306 16.31 183.386 16.49C183.473 16.67 183.516 16.8867 183.516 17.14C183.516 17.2 183.493 17.3533 183.446 17.6C183.399 17.84 183.333 18.15 183.246 18.53C183.166 18.9033 183.073 19.32 182.966 19.78C182.866 20.2333 182.763 20.7033 182.656 21.19C183.096 21.1433 183.476 21.1067 183.796 21.08C184.116 21.0467 184.319 21.03 184.406 21.03C184.599 21.03 184.756 21.05 184.876 21.09C184.996 21.13 185.056 21.23 185.056 21.39C185.056 21.5367 184.963 21.66 184.776 21.76C184.596 21.8533 184.399 21.9367 184.186 22.01C183.973 22.0833 183.716 22.1567 183.416 22.23C183.116 22.3033 182.766 22.37 182.366 22.43C182.299 22.7033 182.233 22.9633 182.166 23.21C182.099 23.4567 182.036 23.74 181.976 24.06C181.929 24.2733 181.859 24.4467 181.766 24.58C181.679 24.7133 181.533 24.78 181.326 24.78ZM181.686 19.27C181.359 19.67 181.019 20.07 180.666 20.47C180.319 20.8633 179.986 21.22 179.666 21.54C179.913 21.5067 180.163 21.4767 180.416 21.45C180.676 21.4233 180.936 21.3967 181.196 21.37L181.686 19.27ZM192.811 24C192.411 24 192.031 23.9133 191.671 23.74C191.318 23.56 191.028 23.3067 190.801 22.98C190.581 22.6467 190.471 22.2567 190.471 21.81C190.471 21.37 190.565 20.9333 190.751 20.5C190.938 20.06 191.181 19.6367 191.481 19.23C191.788 18.8167 192.118 18.4333 192.471 18.08C192.831 17.7267 193.181 17.42 193.521 17.16C193.868 16.8933 194.175 16.6867 194.441 16.54C194.715 16.3867 194.915 16.31 195.041 16.31C195.175 16.31 195.311 16.3667 195.451 16.48C195.591 16.5933 195.665 16.7567 195.671 16.97C195.671 17.0633 195.645 17.17 195.591 17.29C195.538 17.41 195.415 17.53 195.221 17.65C195.055 17.75 194.831 17.8967 194.551 18.09C194.278 18.2833 193.988 18.51 193.681 18.77C193.375 19.03 193.081 19.32 192.801 19.64C192.528 19.9533 192.305 20.2867 192.131 20.64C191.958 20.9933 191.871 21.3567 191.871 21.73C191.871 22.0367 191.961 22.27 192.141 22.43C192.321 22.5833 192.565 22.66 192.871 22.66C193.085 22.66 193.338 22.6 193.631 22.48C193.931 22.36 194.238 22.2067 194.551 22.02C194.865 21.8267 195.151 21.62 195.411 21.4C195.678 21.18 195.885 20.97 196.031 20.77C195.778 20.8233 195.498 20.8833 195.191 20.95C194.891 21.01 194.611 21.0633 194.351 21.11C194.091 21.15 193.905 21.17 193.791 21.17C193.591 21.17 193.425 21.13 193.291 21.05C193.158 20.97 193.058 20.8767 192.991 20.77C192.925 20.6567 192.891 20.55 192.891 20.45C192.891 20.3367 192.935 20.22 193.021 20.1C193.108 19.98 193.258 19.9033 193.471 19.87C193.611 19.85 193.801 19.82 194.041 19.78C194.281 19.7333 194.531 19.69 194.791 19.65C195.058 19.6033 195.301 19.5633 195.521 19.53C195.748 19.4967 195.918 19.48 196.031 19.48C196.871 19.48 197.291 19.95 197.291 20.89C197.291 21.07 197.198 21.2933 197.011 21.56C196.825 21.82 196.571 22.0933 196.251 22.38C195.938 22.66 195.585 22.9233 195.191 23.17C194.798 23.4167 194.395 23.6167 193.981 23.77C193.575 23.9233 193.185 24 192.811 24ZM198.802 16.9C198.675 16.9 198.562 16.8567 198.462 16.77C198.369 16.6833 198.322 16.5767 198.322 16.45C198.322 16.2967 198.389 16.1533 198.522 16.02C198.655 15.8867 198.889 15.78 199.222 15.7C199.555 15.6133 200.019 15.57 200.612 15.57C200.619 15.57 200.629 15.57 200.642 15.57C200.702 15.4567 200.769 15.3767 200.842 15.33C200.922 15.2833 200.999 15.26 201.072 15.26C201.145 15.26 201.219 15.28 201.292 15.32C201.365 15.36 201.425 15.44 201.472 15.56C201.525 15.68 201.552 15.8567 201.552 16.09C201.552 16.2033 201.519 16.4267 201.452 16.76C201.392 17.0867 201.309 17.4933 201.202 17.98C201.095 18.46 200.979 18.99 200.852 19.57C200.725 20.1433 200.599 20.74 200.472 21.36C200.345 21.9733 200.229 22.5767 200.122 23.17C200.022 23.7633 199.942 24.3167 199.882 24.83C199.862 25.0233 199.812 25.19 199.732 25.33C199.652 25.4767 199.522 25.5967 199.342 25.69C199.162 25.7833 198.909 25.8533 198.582 25.9C198.255 25.9467 197.829 25.97 197.302 25.97C197.115 25.97 196.949 25.9233 196.802 25.83C196.655 25.7433 196.582 25.6167 196.582 25.45C196.582 25.2567 196.652 25.0967 196.792 24.97C196.939 24.8433 197.109 24.77 197.302 24.75C197.475 24.7367 197.669 24.7233 197.882 24.71C198.102 24.7033 198.322 24.7 198.542 24.7C198.735 23.2733 198.992 21.9 199.312 20.58C199.639 19.26 199.955 18.0133 200.262 16.84C200.075 16.86 199.862 16.8767 199.622 16.89C199.382 16.8967 199.109 16.9 198.802 16.9Z" fill="#B5906E"/>
<path d="M220 31L220 9" stroke="#B5906E" stroke-linecap="round" stroke-dasharray="0.1 3"/>
<path d="M240.66 24.24C240.153 24.24 239.703 24.11 239.31 23.85C238.917 23.59 238.607 23.23 238.38 22.77C238.16 22.3033 238.05 21.77 238.05 21.17C238.05 20.7233 238.14 20.29 238.32 19.87C238.5 19.4433 238.7 19.07 238.92 18.75C238.893 18.65 238.88 18.5267 238.88 18.38C238.88 18.2 238.953 17.9933 239.1 17.76C239.247 17.5267 239.45 17.3 239.71 17.08C239.977 16.86 240.287 16.6767 240.64 16.53C241 16.3833 241.39 16.31 241.81 16.31C242.463 16.31 243.013 16.4433 243.46 16.71C243.907 16.9767 244.243 17.3267 244.47 17.76C244.703 18.1933 244.82 18.6633 244.82 19.17C244.82 19.9033 244.7 20.58 244.46 21.2C244.22 21.82 243.9 22.3567 243.5 22.81C243.1 23.2633 242.653 23.6167 242.16 23.87C241.667 24.1167 241.167 24.24 240.66 24.24ZM240.78 17.97C240.787 17.99 240.79 18.01 240.79 18.03C240.79 18.0967 240.777 18.17 240.75 18.25C240.723 18.3233 240.67 18.3967 240.59 18.47C240.457 18.6033 240.323 18.79 240.19 19.03C240.057 19.2633 239.933 19.5233 239.82 19.81C239.713 20.0967 239.627 20.39 239.56 20.69C239.493 20.99 239.46 21.2767 239.46 21.55C239.46 21.9233 239.547 22.2333 239.72 22.48C239.9 22.7267 240.18 22.85 240.56 22.85C240.88 22.85 241.183 22.7767 241.47 22.63C241.757 22.4767 242.02 22.2733 242.26 22.02C242.5 21.76 242.707 21.4733 242.88 21.16C243.053 20.84 243.187 20.5167 243.28 20.19C243.38 19.8567 243.43 19.54 243.43 19.24C243.43 18.96 243.37 18.7 243.25 18.46C243.137 18.22 242.97 18.0267 242.75 17.88C242.53 17.7267 242.257 17.65 241.93 17.65C241.69 17.65 241.473 17.68 241.28 17.74C241.093 17.8 240.927 17.8767 240.78 17.97ZM248.258 23.95C248.011 23.95 247.828 23.8533 247.708 23.66C247.588 23.46 247.528 23.1 247.528 22.58C247.528 21.9133 247.588 21.2567 247.708 20.61C247.834 19.9633 248.011 19.3567 248.238 18.79C248.471 18.2233 248.751 17.7267 249.078 17.3C249.411 16.8667 249.788 16.53 250.208 16.29C250.628 16.0433 251.084 15.92 251.578 15.92C252.311 15.92 252.854 16.1167 253.208 16.51C253.568 16.8967 253.748 17.4667 253.748 18.22C253.748 18.62 253.668 18.9767 253.508 19.29C253.348 19.5967 253.138 19.84 252.878 20.02C252.624 20.1933 252.351 20.28 252.058 20.28C251.891 20.28 251.714 20.25 251.528 20.19C251.888 20.6567 252.248 21.0633 252.608 21.41C252.974 21.7567 253.338 22.0767 253.698 22.37C254.064 22.6567 254.431 22.95 254.798 23.25C254.991 23.4033 255.101 23.5667 255.128 23.74C255.154 23.9133 255.108 24.06 254.988 24.18C254.874 24.3067 254.698 24.37 254.458 24.37C254.271 24.37 254.034 24.2867 253.748 24.12C253.461 23.96 253.151 23.7433 252.818 23.47C252.484 23.19 252.151 22.88 251.818 22.54C251.491 22.2 251.191 21.8533 250.918 21.5C250.651 21.1467 250.434 20.81 250.268 20.49C250.108 20.17 250.028 19.8967 250.028 19.67C250.028 19.4567 250.084 19.2933 250.198 19.18C250.311 19.06 250.458 19 250.638 19C250.784 19 250.918 19.02 251.038 19.06C251.164 19.1 251.298 19.12 251.438 19.12C251.584 19.12 251.738 19.08 251.898 19C252.064 18.92 252.204 18.7967 252.318 18.63C252.431 18.4567 252.488 18.2367 252.488 17.97C252.488 17.6767 252.404 17.48 252.238 17.38C252.078 17.28 251.861 17.23 251.588 17.23C251.208 17.23 250.864 17.3633 250.558 17.63C250.251 17.8967 249.984 18.2733 249.758 18.76C249.531 19.2467 249.348 19.82 249.208 20.48C249.074 21.14 248.984 21.86 248.938 22.64C248.911 23.1467 248.844 23.4933 248.738 23.68C248.631 23.86 248.471 23.95 248.258 23.95ZM259.426 24C259.026 24 258.646 23.9133 258.286 23.74C257.933 23.56 257.643 23.3067 257.416 22.98C257.196 22.6467 257.086 22.2567 257.086 21.81C257.086 21.37 257.18 20.9333 257.366 20.5C257.553 20.06 257.796 19.6367 258.096 19.23C258.403 18.8167 258.733 18.4333 259.086 18.08C259.446 17.7267 259.796 17.42 260.136 17.16C260.483 16.8933 260.79 16.6867 261.056 16.54C261.33 16.3867 261.53 16.31 261.656 16.31C261.79 16.31 261.926 16.3667 262.066 16.48C262.206 16.5933 262.28 16.7567 262.286 16.97C262.286 17.0633 262.26 17.17 262.206 17.29C262.153 17.41 262.03 17.53 261.836 17.65C261.67 17.75 261.446 17.8967 261.166 18.09C260.893 18.2833 260.603 18.51 260.296 18.77C259.99 19.03 259.696 19.32 259.416 19.64C259.143 19.9533 258.92 20.2867 258.746 20.64C258.573 20.9933 258.486 21.3567 258.486 21.73C258.486 22.0367 258.576 22.27 258.756 22.43C258.936 22.5833 259.18 22.66 259.486 22.66C259.7 22.66 259.953 22.6 260.246 22.48C260.546 22.36 260.853 22.2067 261.166 22.02C261.48 21.8267 261.766 21.62 262.026 21.4C262.293 21.18 262.5 20.97 262.646 20.77C262.393 20.8233 262.113 20.8833 261.806 20.95C261.506 21.01 261.226 21.0633 260.966 21.11C260.706 21.15 260.52 21.17 260.406 21.17C260.206 21.17 260.04 21.13 259.906 21.05C259.773 20.97 259.673 20.8767 259.606 20.77C259.54 20.6567 259.506 20.55 259.506 20.45C259.506 20.3367 259.55 20.22 259.636 20.1C259.723 19.98 259.873 19.9033 260.086 19.87C260.226 19.85 260.416 19.82 260.656 19.78C260.896 19.7333 261.146 19.69 261.406 19.65C261.673 19.6033 261.916 19.5633 262.136 19.53C262.363 19.4967 262.533 19.48 262.646 19.48C263.486 19.48 263.906 19.95 263.906 20.89C263.906 21.07 263.813 21.2933 263.626 21.56C263.44 21.82 263.186 22.0933 262.866 22.38C262.553 22.66 262.2 22.9233 261.806 23.17C261.413 23.4167 261.01 23.6167 260.596 23.77C260.19 23.9233 259.8 24 259.426 24ZM266.533 24.27C266.373 24.27 266.233 24.2233 266.113 24.13C265.993 24.0367 265.933 23.8367 265.933 23.53C265.933 23.39 265.983 23.1667 266.083 22.86C266.183 22.5533 266.316 22.1933 266.483 21.78C266.656 21.36 266.85 20.9167 267.063 20.45C267.276 19.9833 267.5 19.52 267.733 19.06C267.966 18.6 268.193 18.1733 268.413 17.78C268.633 17.3867 268.836 17.0533 269.023 16.78C269.216 16.5 269.373 16.3133 269.493 16.22C269.666 16.0933 269.84 16.03 270.013 16.03C270.106 16.03 270.196 16.04 270.283 16.06C270.376 16.08 270.453 16.1133 270.513 16.16C270.653 16.2467 270.776 16.4133 270.883 16.66C270.996 16.9 271.096 17.19 271.183 17.53C271.276 17.87 271.353 18.2367 271.413 18.63C271.48 19.0167 271.536 19.4 271.583 19.78C271.836 19.7467 272.01 19.73 272.103 19.73C272.303 19.73 272.48 19.76 272.633 19.82C272.786 19.8733 272.866 19.9867 272.873 20.16C272.886 20.3267 272.833 20.4667 272.713 20.58C272.6 20.6933 272.453 20.7767 272.273 20.83C272.193 20.8567 272 20.9 271.693 20.96C271.713 21.3 271.723 21.5867 271.723 21.82C271.723 22.4133 271.69 22.8733 271.623 23.2C271.563 23.5267 271.483 23.76 271.383 23.9C271.29 24.04 271.19 24.1233 271.083 24.15C270.983 24.1833 270.893 24.2 270.813 24.2C270.806 24.2 270.8 24.2 270.793 24.2C270.6 24.2 270.456 24.15 270.363 24.05C270.276 23.95 270.233 23.7833 270.233 23.55V22.84C270.233 22.62 270.23 22.3733 270.223 22.1C270.216 21.8267 270.203 21.5367 270.183 21.23C269.79 21.2967 269.396 21.3633 269.003 21.43C268.616 21.49 268.283 21.5433 268.003 21.59C267.876 21.89 267.766 22.16 267.673 22.4C267.58 22.6333 267.516 22.8167 267.483 22.95C267.383 23.2767 267.29 23.5333 267.203 23.72C267.116 23.9 267.033 24.0267 266.953 24.1C266.88 24.18 266.81 24.2267 266.743 24.24C266.676 24.26 266.606 24.27 266.533 24.27ZM268.553 20.36C268.833 20.2933 269.103 20.2333 269.363 20.18C269.623 20.12 269.87 20.0667 270.103 20.02C270.07 19.6067 270.03 19.2033 269.983 18.81C269.936 18.4167 269.883 18.0667 269.823 17.76C269.65 18.0933 269.446 18.4933 269.213 18.96C268.986 19.42 268.766 19.8867 268.553 20.36ZM279.984 24.66C279.844 24.66 279.714 24.6267 279.594 24.56C279.474 24.4933 279.378 24.3767 279.304 24.21C279.238 24.0433 279.218 23.81 279.244 23.51C279.011 22.7233 278.798 21.94 278.604 21.16C278.418 20.38 278.241 19.5767 278.074 18.75C277.834 19.2967 277.618 19.8567 277.424 20.43C277.231 20.9967 277.058 21.5333 276.904 22.04C276.751 22.54 276.611 22.96 276.484 23.3C276.384 23.6 276.284 23.8233 276.184 23.97C276.084 24.11 275.984 24.2 275.884 24.24C275.791 24.2867 275.698 24.31 275.604 24.31C275.378 24.31 275.204 24.2567 275.084 24.15C274.964 24.0433 274.904 23.85 274.904 23.57C274.904 23.4233 274.944 23.2 275.024 22.9C275.104 22.5933 275.211 22.2433 275.344 21.85C275.484 21.45 275.644 21.0333 275.824 20.6C276.004 20.16 276.194 19.7333 276.394 19.32C276.594 18.9067 276.794 18.5333 276.994 18.2C277.194 17.86 277.388 17.59 277.574 17.39C277.761 17.19 277.928 17.09 278.074 17.09C278.201 17.09 278.318 17.1033 278.424 17.13C278.531 17.15 278.634 17.21 278.734 17.31C278.834 17.4033 278.938 17.56 279.044 17.78C279.131 17.9467 279.218 18.1867 279.304 18.5C279.391 18.8067 279.474 19.16 279.554 19.56C279.634 19.9533 279.714 20.3667 279.794 20.8C279.881 21.2333 279.968 21.6567 280.054 22.07C280.308 20.9167 280.511 19.9033 280.664 19.03C280.824 18.15 280.941 17.46 281.014 16.96C281.088 16.46 281.128 16.1967 281.134 16.17C281.181 15.9767 281.231 15.8433 281.284 15.77C281.338 15.69 281.398 15.6433 281.464 15.63C281.531 15.61 281.608 15.6 281.694 15.6C281.701 15.6 281.704 15.6 281.704 15.6C281.878 15.6 282.048 15.67 282.214 15.81C282.388 15.95 282.474 16.14 282.474 16.38C282.474 16.46 282.458 16.64 282.424 16.92C282.391 17.1933 282.341 17.54 282.274 17.96C282.214 18.3733 282.134 18.8333 282.034 19.34C281.934 19.84 281.818 20.3633 281.684 20.91C281.558 21.45 281.414 21.9867 281.254 22.52C281.094 23.0533 280.918 23.5533 280.724 24.02C280.618 24.2867 280.491 24.46 280.344 24.54C280.204 24.62 280.084 24.66 279.984 24.66ZM286.522 18.66C286.202 18.66 285.975 18.6267 285.842 18.56C285.708 18.4933 285.628 18.4133 285.602 18.32C285.575 18.2267 285.562 18.1467 285.562 18.08C285.562 18.0733 285.562 18.07 285.562 18.07C285.562 17.9233 285.628 17.7833 285.762 17.65C285.895 17.51 286.082 17.4133 286.322 17.36C286.522 17.32 286.758 17.28 287.032 17.24C287.312 17.1933 287.605 17.1533 287.912 17.12C288.225 17.08 288.525 17.05 288.812 17.03C289.098 17.01 289.352 17 289.572 17C289.865 17 290.092 17.0433 290.252 17.13C290.412 17.21 290.522 17.3033 290.582 17.41C290.648 17.5167 290.682 17.6067 290.682 17.68C290.682 17.7467 290.665 17.8133 290.632 17.88C290.598 17.9467 290.515 18.0133 290.382 18.08C290.255 18.1467 290.052 18.21 289.772 18.27C289.492 18.33 289.105 18.3867 288.612 18.44C288.565 18.4467 288.515 18.4533 288.462 18.46C288.415 18.7467 288.358 19.09 288.292 19.49C288.225 19.8833 288.152 20.2967 288.072 20.73C287.998 21.1567 287.925 21.5667 287.852 21.96C287.785 22.3467 287.725 22.6767 287.672 22.95C287.945 22.9233 288.185 22.9033 288.392 22.89C288.605 22.8767 288.748 22.87 288.822 22.87C289.055 22.87 289.215 22.92 289.302 23.02C289.388 23.1133 289.432 23.2367 289.432 23.39C289.432 23.45 289.325 23.5433 289.112 23.67C288.898 23.7967 288.602 23.9333 288.222 24.08C287.848 24.2267 287.418 24.3567 286.932 24.47C286.612 24.5433 286.295 24.6 285.982 24.64C285.668 24.68 285.442 24.7 285.302 24.7C285.028 24.7 284.852 24.65 284.772 24.55C284.698 24.45 284.662 24.3233 284.662 24.17C284.662 24.0367 284.702 23.9 284.782 23.76C284.868 23.62 284.988 23.52 285.142 23.46C285.302 23.4 285.478 23.3433 285.672 23.29C285.865 23.2367 286.065 23.19 286.272 23.15C286.285 22.9767 286.312 22.7467 286.352 22.46C286.392 22.1733 286.435 21.86 286.482 21.52C286.535 21.1733 286.588 20.8233 286.642 20.47C286.702 20.11 286.758 19.7733 286.812 19.46C286.872 19.14 286.922 18.8633 286.962 18.63C286.768 18.65 286.622 18.66 286.522 18.66ZM296.886 22.21C297.093 22.21 297.239 22.2667 297.326 22.38C297.413 22.4867 297.456 22.6 297.456 22.72C297.456 22.8867 297.373 23.0633 297.206 23.25C297.039 23.4367 296.823 23.61 296.556 23.77C296.296 23.9233 296.016 24.05 295.716 24.15C295.416 24.25 295.129 24.3 294.856 24.3C294.449 24.3 294.059 24.19 293.686 23.97C293.319 23.7433 293.019 23.4267 292.786 23.02C292.559 22.6133 292.446 22.13 292.446 21.57C292.446 21.11 292.533 20.6533 292.706 20.2C292.886 19.7467 293.123 19.31 293.416 18.89C293.716 18.47 294.043 18.08 294.396 17.72C294.756 17.36 295.116 17.0467 295.476 16.78C295.843 16.5133 296.179 16.3067 296.486 16.16C296.793 16.0067 297.039 15.93 297.226 15.93C297.459 15.93 297.633 15.99 297.746 16.11C297.866 16.2233 297.926 16.3833 297.926 16.59C297.926 16.7567 297.893 16.8867 297.826 16.98C297.766 17.0667 297.669 17.1433 297.536 17.21C297.109 17.43 296.676 17.6967 296.236 18.01C295.803 18.3233 295.406 18.67 295.046 19.05C294.686 19.4233 294.396 19.8167 294.176 20.23C293.956 20.6433 293.846 21.0633 293.846 21.49C293.846 21.9567 293.939 22.31 294.126 22.55C294.313 22.79 294.566 22.91 294.886 22.91C295.046 22.91 295.219 22.8767 295.406 22.81C295.593 22.7367 295.776 22.6533 295.956 22.56C296.143 22.4667 296.316 22.3867 296.476 22.32C296.643 22.2467 296.779 22.21 296.886 22.21Z" fill="#B5906E"/>
<path d="M316 31L316 9" stroke="#B5906E" stroke-linecap="round" stroke-dasharray="0.1 3"/>
<path d="M334.32 24.27C334.16 24.27 334.02 24.2233 333.9 24.13C333.78 24.0367 333.72 23.8367 333.72 23.53C333.72 23.39 333.77 23.1667 333.87 22.86C333.97 22.5533 334.103 22.1933 334.27 21.78C334.443 21.36 334.637 20.9167 334.85 20.45C335.063 19.9833 335.287 19.52 335.52 19.06C335.753 18.6 335.98 18.1733 336.2 17.78C336.42 17.3867 336.623 17.0533 336.81 16.78C337.003 16.5 337.16 16.3133 337.28 16.22C337.453 16.0933 337.627 16.03 337.8 16.03C337.893 16.03 337.983 16.04 338.07 16.06C338.163 16.08 338.24 16.1133 338.3 16.16C338.44 16.2467 338.563 16.4133 338.67 16.66C338.783 16.9 338.883 17.19 338.97 17.53C339.063 17.87 339.14 18.2367 339.2 18.63C339.267 19.0167 339.323 19.4 339.37 19.78C339.623 19.7467 339.797 19.73 339.89 19.73C340.09 19.73 340.267 19.76 340.42 19.82C340.573 19.8733 340.653 19.9867 340.66 20.16C340.673 20.3267 340.62 20.4667 340.5 20.58C340.387 20.6933 340.24 20.7767 340.06 20.83C339.98 20.8567 339.787 20.9 339.48 20.96C339.5 21.3 339.51 21.5867 339.51 21.82C339.51 22.4133 339.477 22.8733 339.41 23.2C339.35 23.5267 339.27 23.76 339.17 23.9C339.077 24.04 338.977 24.1233 338.87 24.15C338.77 24.1833 338.68 24.2 338.6 24.2C338.593 24.2 338.587 24.2 338.58 24.2C338.387 24.2 338.243 24.15 338.15 24.05C338.063 23.95 338.02 23.7833 338.02 23.55V22.84C338.02 22.62 338.017 22.3733 338.01 22.1C338.003 21.8267 337.99 21.5367 337.97 21.23C337.577 21.2967 337.183 21.3633 336.79 21.43C336.403 21.49 336.07 21.5433 335.79 21.59C335.663 21.89 335.553 22.16 335.46 22.4C335.367 22.6333 335.303 22.8167 335.27 22.95C335.17 23.2767 335.077 23.5333 334.99 23.72C334.903 23.9 334.82 24.0267 334.74 24.1C334.667 24.18 334.597 24.2267 334.53 24.24C334.463 24.26 334.393 24.27 334.32 24.27ZM336.34 20.36C336.62 20.2933 336.89 20.2333 337.15 20.18C337.41 20.12 337.657 20.0667 337.89 20.02C337.857 19.6067 337.817 19.2033 337.77 18.81C337.723 18.4167 337.67 18.0667 337.61 17.76C337.437 18.0933 337.233 18.4933 337 18.96C336.773 19.42 336.553 19.8867 336.34 20.36ZM350.403 24.14C350.21 24.14 350.063 24.08 349.963 23.96C349.87 23.84 349.823 23.6767 349.823 23.47C349.823 23.3033 349.83 23.16 349.843 23.04C349.856 22.92 349.883 22.7933 349.923 22.66C349.963 22.52 350.013 22.35 350.073 22.15C350.14 21.9433 350.223 21.68 350.323 21.36C350.383 21.1733 350.456 20.93 350.543 20.63C350.636 20.3233 350.73 19.99 350.823 19.63C350.916 19.2633 350.993 18.8967 351.053 18.53C351.12 18.1567 351.153 17.8133 351.153 17.5C351.153 17.2867 351.106 17.09 351.013 16.91C350.393 17.5233 349.806 18.3233 349.253 19.31C348.706 20.2967 348.22 21.4433 347.793 22.75C347.666 23.0767 347.52 23.2967 347.353 23.41C347.186 23.5167 347.026 23.57 346.873 23.57C346.826 23.57 346.756 23.5433 346.663 23.49C346.57 23.43 346.483 23.3233 346.403 23.17C346.323 23.0167 346.283 22.8 346.283 22.52C346.283 22.4533 346.3 22.37 346.333 22.27C346.366 22.1633 346.416 22.05 346.483 21.93C346.543 21.5833 346.586 21.2133 346.613 20.82C346.646 20.42 346.666 20.0233 346.673 19.63C346.686 19.23 346.693 18.8567 346.693 18.51C346.693 18.2433 346.673 18.01 346.633 17.81C346.306 18.2233 345.996 18.7233 345.703 19.31C345.41 19.8967 345.143 20.52 344.903 21.18C344.67 21.84 344.476 22.4867 344.323 23.12C344.283 23.2733 344.236 23.4167 344.183 23.55C344.13 23.6767 344.05 23.78 343.943 23.86C343.843 23.9333 343.696 23.97 343.503 23.97C343.29 23.97 343.13 23.8833 343.023 23.71C342.916 23.5367 342.863 23.3067 342.863 23.02C342.863 22.8 342.91 22.5167 343.003 22.17C343.096 21.8167 343.223 21.4333 343.383 21.02C343.543 20.6 343.726 20.1733 343.933 19.74C344.146 19.3 344.37 18.8767 344.603 18.47C344.836 18.0633 345.073 17.7 345.313 17.38C345.56 17.0533 345.793 16.7967 346.013 16.61C346.24 16.4167 346.446 16.32 346.633 16.32C346.64 16.32 346.65 16.32 346.663 16.32C346.81 16.32 346.943 16.3333 347.063 16.36C347.19 16.38 347.3 16.45 347.393 16.57C347.493 16.6833 347.58 16.8733 347.653 17.14C347.726 17.4067 347.79 17.7833 347.843 18.27C347.856 18.39 347.866 18.5333 347.873 18.7C347.88 18.86 347.883 19.0267 347.883 19.2C348.103 18.7067 348.343 18.2433 348.603 17.81C348.87 17.3767 349.143 16.9933 349.423 16.66C349.71 16.3267 349.993 16.0667 350.273 15.88C350.553 15.6933 350.813 15.6 351.053 15.6C351.333 15.6 351.593 15.67 351.833 15.81C352.073 15.9433 352.266 16.17 352.413 16.49C352.56 16.81 352.633 17.2467 352.633 17.8C352.633 18.3867 352.58 18.9567 352.473 19.51C352.366 20.0567 352.233 20.5733 352.073 21.06C351.913 21.5467 351.753 21.9933 351.593 22.4C351.433 22.8 351.3 23.1467 351.193 23.44C351.106 23.6467 351.006 23.8167 350.893 23.95C350.78 24.0767 350.616 24.14 350.403 24.14ZM357.357 24.08C357.177 24.08 356.981 24.0367 356.767 23.95C356.561 23.8567 356.364 23.7 356.177 23.48C355.991 23.26 355.837 22.9567 355.717 22.57C355.597 22.1833 355.537 21.6933 355.537 21.1C355.537 20.66 355.594 20.2133 355.707 19.76C355.827 19.3 356.014 18.8667 356.267 18.46C356.521 18.0533 356.847 17.7 357.247 17.4C357.654 17.1 358.141 16.89 358.707 16.77C358.941 16.7167 359.207 16.6667 359.507 16.62C359.814 16.5667 360.124 16.52 360.437 16.48C360.751 16.4333 361.047 16.3967 361.327 16.37C361.614 16.3433 361.854 16.33 362.047 16.33C362.367 16.33 362.607 16.3733 362.767 16.46C362.927 16.5467 363.034 16.6467 363.087 16.76C363.141 16.8667 363.167 16.9633 363.167 17.05C363.167 17.1567 363.134 17.2633 363.067 17.37C363.007 17.4767 362.841 17.5467 362.567 17.58C362.507 17.5867 362.381 17.6033 362.187 17.63C361.994 17.65 361.761 17.68 361.487 17.72C361.221 17.76 360.937 17.8033 360.637 17.85C360.344 17.89 360.057 17.9333 359.777 17.98C359.504 18.02 359.267 18.0567 359.067 18.09C358.627 18.17 358.271 18.3033 357.997 18.49C357.724 18.67 357.511 18.8833 357.357 19.13C357.211 19.3767 357.104 19.6367 357.037 19.91C357.304 19.85 357.581 19.79 357.867 19.73C358.154 19.67 358.424 19.6167 358.677 19.57C358.937 19.5233 359.161 19.4867 359.347 19.46C359.534 19.4333 359.661 19.42 359.727 19.42C359.987 19.42 360.144 19.4533 360.197 19.52C360.257 19.5867 360.287 19.69 360.287 19.83C360.287 19.9567 360.174 20.1033 359.947 20.27C359.721 20.43 359.361 20.5933 358.867 20.76C358.374 20.9267 357.727 21.0733 356.927 21.2C356.927 21.2067 356.927 21.21 356.927 21.21C356.914 21.3433 356.904 21.4967 356.897 21.67C356.891 21.8367 356.887 22.0033 356.887 22.17C356.887 22.3367 356.897 22.4733 356.917 22.58C356.937 22.6867 356.974 22.74 357.027 22.74C357.174 22.74 357.377 22.71 357.637 22.65C357.897 22.59 358.171 22.5167 358.457 22.43C358.744 22.3433 359.011 22.26 359.257 22.18C359.504 22.0933 359.684 22.0267 359.797 21.98C359.964 21.9133 360.131 21.8467 360.297 21.78C360.471 21.7133 360.607 21.68 360.707 21.68C360.807 21.68 360.894 21.72 360.967 21.8C361.041 21.8733 361.064 21.9867 361.037 22.14C361.031 22.2067 360.961 22.3167 360.827 22.47C360.701 22.6167 360.524 22.7833 360.297 22.97C360.077 23.15 359.814 23.3267 359.507 23.5C359.207 23.6667 358.874 23.8067 358.507 23.92C358.147 24.0267 357.764 24.08 357.357 24.08ZM365.185 23.95C364.939 23.95 364.755 23.8533 364.635 23.66C364.515 23.46 364.455 23.1 364.455 22.58C364.455 21.9133 364.515 21.2567 364.635 20.61C364.762 19.9633 364.939 19.3567 365.165 18.79C365.399 18.2233 365.679 17.7267 366.005 17.3C366.339 16.8667 366.715 16.53 367.135 16.29C367.555 16.0433 368.012 15.92 368.505 15.92C369.239 15.92 369.782 16.1167 370.135 16.51C370.495 16.8967 370.675 17.4667 370.675 18.22C370.675 18.62 370.595 18.9767 370.435 19.29C370.275 19.5967 370.065 19.84 369.805 20.02C369.552 20.1933 369.279 20.28 368.985 20.28C368.819 20.28 368.642 20.25 368.455 20.19C368.815 20.6567 369.175 21.0633 369.535 21.41C369.902 21.7567 370.265 22.0767 370.625 22.37C370.992 22.6567 371.359 22.95 371.725 23.25C371.919 23.4033 372.029 23.5667 372.055 23.74C372.082 23.9133 372.035 24.06 371.915 24.18C371.802 24.3067 371.625 24.37 371.385 24.37C371.199 24.37 370.962 24.2867 370.675 24.12C370.389 23.96 370.079 23.7433 369.745 23.47C369.412 23.19 369.079 22.88 368.745 22.54C368.419 22.2 368.119 21.8533 367.845 21.5C367.579 21.1467 367.362 20.81 367.195 20.49C367.035 20.17 366.955 19.8967 366.955 19.67C366.955 19.4567 367.012 19.2933 367.125 19.18C367.239 19.06 367.385 19 367.565 19C367.712 19 367.845 19.02 367.965 19.06C368.092 19.1 368.225 19.12 368.365 19.12C368.512 19.12 368.665 19.08 368.825 19C368.992 18.92 369.132 18.7967 369.245 18.63C369.359 18.4567 369.415 18.2367 369.415 17.97C369.415 17.6767 369.332 17.48 369.165 17.38C369.005 17.28 368.789 17.23 368.515 17.23C368.135 17.23 367.792 17.3633 367.485 17.63C367.179 17.8967 366.912 18.2733 366.685 18.76C366.459 19.2467 366.275 19.82 366.135 20.48C366.002 21.14 365.912 21.86 365.865 22.64C365.839 23.1467 365.772 23.4933 365.665 23.68C365.559 23.86 365.399 23.95 365.185 23.95ZM375.754 18.66C375.434 18.66 375.207 18.6267 375.074 18.56C374.941 18.4933 374.861 18.4133 374.834 18.32C374.807 18.2267 374.794 18.1467 374.794 18.08C374.794 18.0733 374.794 18.07 374.794 18.07C374.794 17.9233 374.861 17.7833 374.994 17.65C375.127 17.51 375.314 17.4133 375.554 17.36C375.754 17.32 375.991 17.28 376.264 17.24C376.544 17.1933 376.837 17.1533 377.144 17.12C377.457 17.08 377.757 17.05 378.044 17.03C378.331 17.01 378.584 17 378.804 17C379.097 17 379.324 17.0433 379.484 17.13C379.644 17.21 379.754 17.3033 379.814 17.41C379.881 17.5167 379.914 17.6067 379.914 17.68C379.914 17.7467 379.897 17.8133 379.864 17.88C379.831 17.9467 379.747 18.0133 379.614 18.08C379.487 18.1467 379.284 18.21 379.004 18.27C378.724 18.33 378.337 18.3867 377.844 18.44C377.797 18.4467 377.747 18.4533 377.694 18.46C377.647 18.7467 377.591 19.09 377.524 19.49C377.457 19.8833 377.384 20.2967 377.304 20.73C377.231 21.1567 377.157 21.5667 377.084 21.96C377.017 22.3467 376.957 22.6767 376.904 22.95C377.177 22.9233 377.417 22.9033 377.624 22.89C377.837 22.8767 377.981 22.87 378.054 22.87C378.287 22.87 378.447 22.92 378.534 23.02C378.621 23.1133 378.664 23.2367 378.664 23.39C378.664 23.45 378.557 23.5433 378.344 23.67C378.131 23.7967 377.834 23.9333 377.454 24.08C377.081 24.2267 376.651 24.3567 376.164 24.47C375.844 24.5433 375.527 24.6 375.214 24.64C374.901 24.68 374.674 24.7 374.534 24.7C374.261 24.7 374.084 24.65 374.004 24.55C373.931 24.45 373.894 24.3233 373.894 24.17C373.894 24.0367 373.934 23.9 374.014 23.76C374.101 23.62 374.221 23.52 374.374 23.46C374.534 23.4 374.711 23.3433 374.904 23.29C375.097 23.2367 375.297 23.19 375.504 23.15C375.517 22.9767 375.544 22.7467 375.584 22.46C375.624 22.1733 375.667 21.86 375.714 21.52C375.767 21.1733 375.821 20.8233 375.874 20.47C375.934 20.11 375.991 19.7733 376.044 19.46C376.104 19.14 376.154 18.8633 376.194 18.63C376.001 18.65 375.854 18.66 375.754 18.66ZM386.118 22.21C386.325 22.21 386.472 22.2667 386.558 22.38C386.645 22.4867 386.688 22.6 386.688 22.72C386.688 22.8867 386.605 23.0633 386.438 23.25C386.272 23.4367 386.055 23.61 385.788 23.77C385.528 23.9233 385.248 24.05 384.948 24.15C384.648 24.25 384.362 24.3 384.088 24.3C383.682 24.3 383.292 24.19 382.918 23.97C382.552 23.7433 382.252 23.4267 382.018 23.02C381.792 22.6133 381.678 22.13 381.678 21.57C381.678 21.11 381.765 20.6533 381.938 20.2C382.118 19.7467 382.355 19.31 382.648 18.89C382.948 18.47 383.275 18.08 383.628 17.72C383.988 17.36 384.348 17.0467 384.708 16.78C385.075 16.5133 385.412 16.3067 385.718 16.16C386.025 16.0067 386.272 15.93 386.458 15.93C386.692 15.93 386.865 15.99 386.978 16.11C387.098 16.2233 387.158 16.3833 387.158 16.59C387.158 16.7567 387.125 16.8867 387.058 16.98C386.998 17.0667 386.902 17.1433 386.768 17.21C386.342 17.43 385.908 17.6967 385.468 18.01C385.035 18.3233 384.638 18.67 384.278 19.05C383.918 19.4233 383.628 19.8167 383.408 20.23C383.188 20.6433 383.078 21.0633 383.078 21.49C383.078 21.9567 383.172 22.31 383.358 22.55C383.545 22.79 383.798 22.91 384.118 22.91C384.278 22.91 384.452 22.8767 384.638 22.81C384.825 22.7367 385.008 22.6533 385.188 22.56C385.375 22.4667 385.548 22.3867 385.708 22.32C385.875 22.2467 386.012 22.21 386.118 22.21ZM389.769 24.27C389.609 24.27 389.469 24.2233 389.349 24.13C389.229 24.0367 389.169 23.8367 389.169 23.53C389.169 23.39 389.219 23.1667 389.319 22.86C389.419 22.5533 389.553 22.1933 389.719 21.78C389.893 21.36 390.086 20.9167 390.299 20.45C390.513 19.9833 390.736 19.52 390.969 19.06C391.203 18.6 391.429 18.1733 391.649 17.78C391.869 17.3867 392.073 17.0533 392.259 16.78C392.453 16.5 392.609 16.3133 392.729 16.22C392.903 16.0933 393.076 16.03 393.249 16.03C393.343 16.03 393.433 16.04 393.519 16.06C393.613 16.08 393.689 16.1133 393.749 16.16C393.889 16.2467 394.013 16.4133 394.119 16.66C394.233 16.9 394.333 17.19 394.419 17.53C394.513 17.87 394.589 18.2367 394.649 18.63C394.716 19.0167 394.773 19.4 394.819 19.78C395.073 19.7467 395.246 19.73 395.339 19.73C395.539 19.73 395.716 19.76 395.869 19.82C396.023 19.8733 396.103 19.9867 396.109 20.16C396.123 20.3267 396.069 20.4667 395.949 20.58C395.836 20.6933 395.689 20.7767 395.509 20.83C395.429 20.8567 395.236 20.9 394.929 20.96C394.949 21.3 394.959 21.5867 394.959 21.82C394.959 22.4133 394.926 22.8733 394.859 23.2C394.799 23.5267 394.719 23.76 394.619 23.9C394.526 24.04 394.426 24.1233 394.319 24.15C394.219 24.1833 394.129 24.2 394.049 24.2C394.043 24.2 394.036 24.2 394.029 24.2C393.836 24.2 393.693 24.15 393.599 24.05C393.513 23.95 393.469 23.7833 393.469 23.55V22.84C393.469 22.62 393.466 22.3733 393.459 22.1C393.453 21.8267 393.439 21.5367 393.419 21.23C393.026 21.2967 392.633 21.3633 392.239 21.43C391.853 21.49 391.519 21.5433 391.239 21.59C391.113 21.89 391.003 22.16 390.909 22.4C390.816 22.6333 390.753 22.8167 390.719 22.95C390.619 23.2767 390.526 23.5333 390.439 23.72C390.353 23.9 390.269 24.0267 390.189 24.1C390.116 24.18 390.046 24.2267 389.979 24.24C389.913 24.26 389.843 24.27 389.769 24.27ZM391.789 20.36C392.069 20.2933 392.339 20.2333 392.599 20.18C392.859 20.12 393.106 20.0667 393.339 20.02C393.306 19.6067 393.266 19.2033 393.219 18.81C393.173 18.4167 393.119 18.0667 393.059 17.76C392.886 18.0933 392.683 18.4933 392.449 18.96C392.223 19.42 392.003 19.8867 391.789 20.36ZM403.221 24.66C403.081 24.66 402.951 24.6267 402.831 24.56C402.711 24.4933 402.614 24.3767 402.541 24.21C402.474 24.0433 402.454 23.81 402.481 23.51C402.247 22.7233 402.034 21.94 401.841 21.16C401.654 20.38 401.477 19.5767 401.311 18.75C401.071 19.2967 400.854 19.8567 400.661 20.43C400.467 20.9967 400.294 21.5333 400.141 22.04C399.987 22.54 399.847 22.96 399.721 23.3C399.621 23.6 399.521 23.8233 399.421 23.97C399.321 24.11 399.221 24.2 399.121 24.24C399.027 24.2867 398.934 24.31 398.841 24.31C398.614 24.31 398.441 24.2567 398.321 24.15C398.201 24.0433 398.141 23.85 398.141 23.57C398.141 23.4233 398.181 23.2 398.261 22.9C398.341 22.5933 398.447 22.2433 398.581 21.85C398.721 21.45 398.881 21.0333 399.061 20.6C399.241 20.16 399.431 19.7333 399.631 19.32C399.831 18.9067 400.031 18.5333 400.231 18.2C400.431 17.86 400.624 17.59 400.811 17.39C400.997 17.19 401.164 17.09 401.311 17.09C401.437 17.09 401.554 17.1033 401.661 17.13C401.767 17.15 401.871 17.21 401.971 17.31C402.071 17.4033 402.174 17.56 402.281 17.78C402.367 17.9467 402.454 18.1867 402.541 18.5C402.627 18.8067 402.711 19.16 402.791 19.56C402.871 19.9533 402.951 20.3667 403.031 20.8C403.117 21.2333 403.204 21.6567 403.291 22.07C403.544 20.9167 403.747 19.9033 403.901 19.03C404.061 18.15 404.177 17.46 404.251 16.96C404.324 16.46 404.364 16.1967 404.371 16.17C404.417 15.9767 404.467 15.8433 404.521 15.77C404.574 15.69 404.634 15.6433 404.701 15.63C404.767 15.61 404.844 15.6 404.931 15.6C404.937 15.6 404.941 15.6 404.941 15.6C405.114 15.6 405.284 15.67 405.451 15.81C405.624 15.95 405.711 16.14 405.711 16.38C405.711 16.46 405.694 16.64 405.661 16.92C405.627 17.1933 405.577 17.54 405.511 17.96C405.451 18.3733 405.371 18.8333 405.271 19.34C405.171 19.84 405.054 20.3633 404.921 20.91C404.794 21.45 404.651 21.9867 404.491 22.52C404.331 23.0533 404.154 23.5533 403.961 24.02C403.854 24.2867 403.727 24.46 403.581 24.54C403.441 24.62 403.321 24.66 403.221 24.66ZM419.592 24.14C419.399 24.14 419.252 24.08 419.152 23.96C419.059 23.84 419.012 23.6767 419.012 23.47C419.012 23.3033 419.019 23.16 419.032 23.04C419.046 22.92 419.072 22.7933 419.112 22.66C419.152 22.52 419.202 22.35 419.262 22.15C419.329 21.9433 419.412 21.68 419.512 21.36C419.572 21.1733 419.646 20.93 419.732 20.63C419.826 20.3233 419.919 19.99 420.012 19.63C420.106 19.2633 420.182 18.8967 420.242 18.53C420.309 18.1567 420.342 17.8133 420.342 17.5C420.342 17.2867 420.296 17.09 420.202 16.91C419.582 17.5233 418.996 18.3233 418.442 19.31C417.896 20.2967 417.409 21.4433 416.982 22.75C416.856 23.0767 416.709 23.2967 416.542 23.41C416.376 23.5167 416.216 23.57 416.062 23.57C416.016 23.57 415.946 23.5433 415.852 23.49C415.759 23.43 415.672 23.3233 415.592 23.17C415.512 23.0167 415.472 22.8 415.472 22.52C415.472 22.4533 415.489 22.37 415.522 22.27C415.556 22.1633 415.606 22.05 415.672 21.93C415.732 21.5833 415.776 21.2133 415.802 20.82C415.836 20.42 415.856 20.0233 415.862 19.63C415.876 19.23 415.882 18.8567 415.882 18.51C415.882 18.2433 415.862 18.01 415.822 17.81C415.496 18.2233 415.186 18.7233 414.892 19.31C414.599 19.8967 414.332 20.52 414.092 21.18C413.859 21.84 413.666 22.4867 413.512 23.12C413.472 23.2733 413.426 23.4167 413.372 23.55C413.319 23.6767 413.239 23.78 413.132 23.86C413.032 23.9333 412.886 23.97 412.692 23.97C412.479 23.97 412.319 23.8833 412.212 23.71C412.106 23.5367 412.052 23.3067 412.052 23.02C412.052 22.8 412.099 22.5167 412.192 22.17C412.286 21.8167 412.412 21.4333 412.572 21.02C412.732 20.6 412.916 20.1733 413.122 19.74C413.336 19.3 413.559 18.8767 413.792 18.47C414.026 18.0633 414.262 17.7 414.502 17.38C414.749 17.0533 414.982 16.7967 415.202 16.61C415.429 16.4167 415.636 16.32 415.822 16.32C415.829 16.32 415.839 16.32 415.852 16.32C415.999 16.32 416.132 16.3333 416.252 16.36C416.379 16.38 416.489 16.45 416.582 16.57C416.682 16.6833 416.769 16.8733 416.842 17.14C416.916 17.4067 416.979 17.7833 417.032 18.27C417.046 18.39 417.056 18.5333 417.062 18.7C417.069 18.86 417.072 19.0267 417.072 19.2C417.292 18.7067 417.532 18.2433 417.792 17.81C418.059 17.3767 418.332 16.9933 418.612 16.66C418.899 16.3267 419.182 16.0667 419.462 15.88C419.742 15.6933 420.002 15.6 420.242 15.6C420.522 15.6 420.782 15.67 421.022 15.81C421.262 15.9433 421.456 16.17 421.602 16.49C421.749 16.81 421.822 17.2467 421.822 17.8C421.822 18.3867 421.769 18.9567 421.662 19.51C421.556 20.0567 421.422 20.5733 421.262 21.06C421.102 21.5467 420.942 21.9933 420.782 22.4C420.622 22.8 420.489 23.1467 420.382 23.44C420.296 23.6467 420.196 23.8167 420.082 23.95C419.969 24.0767 419.806 24.14 419.592 24.14ZM424.662 24.27C424.502 24.27 424.362 24.2233 424.242 24.13C424.122 24.0367 424.062 23.8367 424.062 23.53C424.062 23.39 424.112 23.1667 424.212 22.86C424.312 22.5533 424.445 22.1933 424.612 21.78C424.785 21.36 424.978 20.9167 425.192 20.45C425.405 19.9833 425.628 19.52 425.862 19.06C426.095 18.6 426.322 18.1733 426.542 17.78C426.762 17.3867 426.965 17.0533 427.152 16.78C427.345 16.5 427.502 16.3133 427.622 16.22C427.795 16.0933 427.968 16.03 428.142 16.03C428.235 16.03 428.325 16.04 428.412 16.06C428.505 16.08 428.582 16.1133 428.642 16.16C428.782 16.2467 428.905 16.4133 429.012 16.66C429.125 16.9 429.225 17.19 429.312 17.53C429.405 17.87 429.482 18.2367 429.542 18.63C429.608 19.0167 429.665 19.4 429.712 19.78C429.965 19.7467 430.138 19.73 430.232 19.73C430.432 19.73 430.608 19.76 430.762 19.82C430.915 19.8733 430.995 19.9867 431.002 20.16C431.015 20.3267 430.962 20.4667 430.842 20.58C430.728 20.6933 430.582 20.7767 430.402 20.83C430.322 20.8567 430.128 20.9 429.822 20.96C429.842 21.3 429.852 21.5867 429.852 21.82C429.852 22.4133 429.818 22.8733 429.752 23.2C429.692 23.5267 429.612 23.76 429.512 23.9C429.418 24.04 429.318 24.1233 429.212 24.15C429.112 24.1833 429.022 24.2 428.942 24.2C428.935 24.2 428.928 24.2 428.922 24.2C428.728 24.2 428.585 24.15 428.492 24.05C428.405 23.95 428.362 23.7833 428.362 23.55V22.84C428.362 22.62 428.358 22.3733 428.352 22.1C428.345 21.8267 428.332 21.5367 428.312 21.23C427.918 21.2967 427.525 21.3633 427.132 21.43C426.745 21.49 426.412 21.5433 426.132 21.59C426.005 21.89 425.895 22.16 425.802 22.4C425.708 22.6333 425.645 22.8167 425.612 22.95C425.512 23.2767 425.418 23.5333 425.332 23.72C425.245 23.9 425.162 24.0267 425.082 24.1C425.008 24.18 424.938 24.2267 424.872 24.24C424.805 24.26 424.735 24.27 424.662 24.27ZM426.682 20.36C426.962 20.2933 427.232 20.2333 427.492 20.18C427.752 20.12 427.998 20.0667 428.232 20.02C428.198 19.6067 428.158 19.2033 428.112 18.81C428.065 18.4167 428.012 18.0667 427.952 17.76C427.778 18.0933 427.575 18.4933 427.342 18.96C427.115 19.42 426.895 19.8867 426.682 20.36ZM434.234 24.61C434.041 24.61 433.888 24.5567 433.774 24.45C433.668 24.35 433.614 24.2067 433.614 24.02C433.614 23.8467 433.661 23.7 433.754 23.58C433.848 23.4533 434.028 23.3333 434.294 23.22C434.314 23.2133 434.334 23.2067 434.354 23.2C434.188 23.1667 434.071 23.0733 434.004 22.92C433.944 22.7667 433.914 22.59 433.914 22.39C433.914 22.2767 433.934 22.0933 433.974 21.84C434.014 21.5867 434.064 21.2967 434.124 20.97C434.184 20.6433 434.248 20.32 434.314 20C434.381 19.6733 434.438 19.3867 434.484 19.14C434.611 18.5733 434.774 18.0733 434.974 17.64C435.174 17.2067 435.444 16.87 435.784 16.63C436.124 16.3833 436.561 16.26 437.094 16.26C437.501 16.26 437.901 16.3467 438.294 16.52C438.694 16.6867 439.058 16.9233 439.384 17.23C439.711 17.5367 439.971 17.8967 440.164 18.31C440.364 18.7233 440.464 19.1767 440.464 19.67C440.464 20.23 440.244 20.7933 439.804 21.36C439.364 21.9267 438.748 22.47 437.954 22.99C437.168 23.5033 436.248 23.9667 435.194 24.38C435.021 24.4467 434.864 24.5 434.724 24.54C434.591 24.5867 434.428 24.61 434.234 24.61ZM435.094 22.91C436.061 22.5233 436.841 22.1533 437.434 21.8C438.028 21.4467 438.458 21.0733 438.724 20.68C438.998 20.2867 439.134 19.84 439.134 19.34C439.134 19.06 439.041 18.7933 438.854 18.54C438.668 18.2867 438.428 18.0833 438.134 17.93C437.841 17.77 437.531 17.69 437.204 17.69C436.851 17.69 436.568 17.8333 436.354 18.12C436.141 18.4 435.971 18.88 435.844 19.56C435.784 19.8333 435.721 20.13 435.654 20.45C435.594 20.7633 435.534 21.0667 435.474 21.36C435.421 21.6467 435.374 21.8867 435.334 22.08C435.301 22.2733 435.281 22.3867 435.274 22.42C435.241 22.62 435.181 22.7833 435.094 22.91ZM445.209 24.08C445.029 24.08 444.832 24.0367 444.619 23.95C444.412 23.8567 444.216 23.7 444.029 23.48C443.842 23.26 443.689 22.9567 443.569 22.57C443.449 22.1833 443.389 21.6933 443.389 21.1C443.389 20.66 443.446 20.2133 443.559 19.76C443.679 19.3 443.866 18.8667 444.119 18.46C444.372 18.0533 444.699 17.7 445.099 17.4C445.506 17.1 445.992 16.89 446.559 16.77C446.792 16.7167 447.059 16.6667 447.359 16.62C447.666 16.5667 447.976 16.52 448.289 16.48C448.602 16.4333 448.899 16.3967 449.179 16.37C449.466 16.3433 449.706 16.33 449.899 16.33C450.219 16.33 450.459 16.3733 450.619 16.46C450.779 16.5467 450.886 16.6467 450.939 16.76C450.992 16.8667 451.019 16.9633 451.019 17.05C451.019 17.1567 450.986 17.2633 450.919 17.37C450.859 17.4767 450.692 17.5467 450.419 17.58C450.359 17.5867 450.232 17.6033 450.039 17.63C449.846 17.65 449.612 17.68 449.339 17.72C449.072 17.76 448.789 17.8033 448.489 17.85C448.196 17.89 447.909 17.9333 447.629 17.98C447.356 18.02 447.119 18.0567 446.919 18.09C446.479 18.17 446.122 18.3033 445.849 18.49C445.576 18.67 445.362 18.8833 445.209 19.13C445.062 19.3767 444.956 19.6367 444.889 19.91C445.156 19.85 445.432 19.79 445.719 19.73C446.006 19.67 446.276 19.6167 446.529 19.57C446.789 19.5233 447.012 19.4867 447.199 19.46C447.386 19.4333 447.512 19.42 447.579 19.42C447.839 19.42 447.996 19.4533 448.049 19.52C448.109 19.5867 448.139 19.69 448.139 19.83C448.139 19.9567 448.026 20.1033 447.799 20.27C447.572 20.43 447.212 20.5933 446.719 20.76C446.226 20.9267 445.579 21.0733 444.779 21.2C444.779 21.2067 444.779 21.21 444.779 21.21C444.766 21.3433 444.756 21.4967 444.749 21.67C444.742 21.8367 444.739 22.0033 444.739 22.17C444.739 22.3367 444.749 22.4733 444.769 22.58C444.789 22.6867 444.826 22.74 444.879 22.74C445.026 22.74 445.229 22.71 445.489 22.65C445.749 22.59 446.022 22.5167 446.309 22.43C446.596 22.3433 446.862 22.26 447.109 22.18C447.356 22.0933 447.536 22.0267 447.649 21.98C447.816 21.9133 447.982 21.8467 448.149 21.78C448.322 21.7133 448.459 21.68 448.559 21.68C448.659 21.68 448.746 21.72 448.819 21.8C448.892 21.8733 448.916 21.9867 448.889 22.14C448.882 22.2067 448.812 22.3167 448.679 22.47C448.552 22.6167 448.376 22.7833 448.149 22.97C447.929 23.15 447.666 23.3267 447.359 23.5C447.059 23.6667 446.726 23.8067 446.359 23.92C445.999 24.0267 445.616 24.08 445.209 24.08Z" fill="#B5906E"/>
</svg>
