<?xml version="1.0" encoding="UTF-8"?>
<svg id="Layer_1" data-name="Layer 1" xmlns="http://www.w3.org/2000/svg" viewBox="0 0 553.53 189.01">
  <defs>
    <style>
      .cls-1 {
        fill: #33627b;
      }

      .cls-1, .cls-2, .cls-3, .cls-4, .cls-5, .cls-6, .cls-7 {
        stroke-width: 0px;
      }

      .cls-2 {
        fill: #36647d;
      }

      .cls-3 {
        fill: #36647c;
      }

      .cls-4 {
        fill: #37657d;
      }

      .cls-5 {
        fill: #37647d;
      }

      .cls-6 {
        fill: #35637c;
      }

      .cls-7 {
        fill: #34637b;
      }
    </style>
  </defs>
  <path class="cls-1" d="M42.67,155.64c-5.43.57-11.01-1.28-15.72-4.81-3.6-2.7-6.37-3.33-9.8-.15-1.47,1.36-3.64,2.67-5.49,1.47-2.06-1.34-.95-3.64-.16-5.45,1.79-4.07,1.02-7.83-1.22-11.44-2.54-4.1-3.78-8.46-3.45-13.33.6-8.87,10.94-15.3,19.17-11.8,1.7.72,3.32,1.83,3.61,3.67.43,2.74-2.07,2.13-3.61,2.72-5.32,2.02-7.59,9.73-4.97,16.77,2.95,7.93,9.6,11.48,17.22,11.85,16.24.8,31.31-7.82,25.46-28.1-2.38-8.24-12.35-14.71-20.84-13.16-4.1.75-6.86,1.44-6.84-4.29.01-3.44-3.41-5.03-6.02-6.69-5.29-3.36-10.56-6.68-14.98-11.22-6.91-7.11-8.64-15.3-5.8-24.62.19-.64.28-1.31.5-1.94,7.48-21.31,22.75-29.74,45.22-24.29,6.38,1.55,12.37.59,18.59.13,7.5-.56,8.4.66,4.99,7.02-2.21,4.12-1.22,8.25-1.45,12.39-.49,8.84-5.34,14.47-13.12,15.07-5.02.39-7.83-2.96-5.56-7.4,3.04-5.95,3.76-10.85-2.95-14.75-8.25-4.8-19.33-4.6-24.47.66-5.16,5.28-6.09,13.91-1.68,19.53,4.86,6.19,9.88,12.39,19.35,10.54,3.96-.77,4.74,1.64,3.85,4.78-1.07,3.78.45,5.56,3.89,7.14,4.23,1.95,8.28,4.45,12.04,7.2,6.04,4.42,9.27,10.47,10.31,18.01,2.99,21.75-9.85,38.7-26.08,43.45-3.08.9-6.16,1.01-9.98,1.01Z"/>
  <path class="cls-1" d="M473.98,112.46c0-7.46.02-14.92,0-22.38-.04-14.04-.34-28.09,0-42.12.11-4.44-1.06-6.79-5.4-7.49-2.32-.37-5.42.14-5.05-3.69.35-3.56,3.07-5.41,6.09-4.78,6.53,1.36,12.47,3.66,19.54.42,3.57-1.63,5.61,3.46,5.98,7.15.24,2.4-1.92,2.32-3.32,1.74-6.56-2.75-7.04,1.13-7.32,6.06-1.43,25.61-1.61,51.2.54,76.77.29,3.43-.99,7.8,5.76,7.13,4.26-.42,2.36,3.51,1.07,5.12-3.86,4.81-9.19,4.23-14.11,2.32-2.76-1.07-4.62-1.59-7.22.31-3.65,2.66-7.32,1.2-10.42-1.39-2.83-2.36-3.75-5.2,1-5.93,4.2-.65,4.22-3.42,3.2-5.69-5.52-12.32-7.96-26.71-21.78-33.73-2.8-1.43-1.85-3.21-.39-4.79,2.57-2.78,2.08-5.6.57-8.59-3.5-6.9-6.63-14.01-12.43-20.92-.83,5.63-1.93,10.28-2.14,14.97-.72,16.45,1.18,32.95-1.16,49.39-.42,2.97-1.05,7.66,4.93,5.56,2.11-.74,3.98-1.18,5.13,1.22,1.18,2.45.85,4.8-1.24,6.67-.82.73-1.86,1.7-2.81,1.71-6.98.08-13.86.03-20.89,1.14-4.03.63-5.46-4.75-5.26-8.65.23-4.42,3.47-2.95,5.98-2.24,3.99,1.13,4.63-1.25,4.75-4.29.35-9.12.7-18.25,1.05-27.37.58-15.36,1.14-30.71,1.73-46.07.15-4.05.02-7.55-5.61-7.83-3.8-.19-3.22-2.94-1.82-5.35.94-1.61,2.67-3.21,4.27-2.88,7.58,1.53,14.8-1.93,22.24-1.27,2.67.24,5.68,1.31,6.07,4.4.4,3.11-2.68,2.98-4.75,3.49-3.36.81-4.27,2.7-3.1,5.93,4.22,11.62,10.01,22.62,17.88,31.92,3.35,3.96,4.87,6.64,5.5,11.83,1.02,8.47,6.05,15.85,12.93,22.23Z"/>
  <path class="cls-1" d="M228.16,88.71c-7.27-.47-7.2-5.31-7.25-10.39-.07-6.07-1.29-11.97-3.23-17.68-4.36-12.89-13.96-16.75-27.59-15.64-18.29,1.5-23.88,13.13-27.27,27.91-.3,1.3-.85,2.61-.84,3.91.04,4.86-1.69,8.53-6.13,11.01-2.55,1.42-3.55,3.92-.57,5.81,6.6,4.16,6.82,10.67,7.96,17.41,2.77,16.35,9.81,26.77,31.09,26.25,1.15-.11,4.13-.05,6.93-.73,8.1-1.99,15.48-5.31,18.05-14.13,1.49-5.11,2.17-10.45,3.16-15.7.96-5.1.38-10.73,6.28-13.79,1.73-.9,2.74-4.03-.59-4.24ZM203.52,121.86c-1.51,5.88-4.41,9.54-10.95,9.47-5.69-.07-10.97-3.82-11.65-9.99-1.99-18.13-3.08-36.33-.21-54.51.1-.65.37-1.28.59-1.91,1.83-5.38,3.97-10.89,10.71-11.11,5.83-.18,12.16,6.77,12.57,13.6.42,7.09.09,14.21.09,21.32,1.43,11.12,1.67,22.18-1.15,33.13Z"/>
  <path class="cls-1" d="M109.37,75.45c-.43,9.74.58,10.34,7.5,7.03,2.96-1.42,4.86-3.84,6.85-6.26,1.53-1.86,2.97-4.53,5.86-3.47,2.58.94,3.78,4.18,3,6.15-2.66,6.73-.87,12.84,1.06,19.21.65,2.15.7,5.48-2.4,6.12-3.26.67-3.64-2.52-4.44-4.78-1.7-4.75-11.9-8.15-16.4-5.39-.64.39-1.32,1.37-1.3,2.06.26,9.54-2.35,19.06.01,28.62,1.15,4.64,4.29,5.59,8.44,5.81,2.66.14,6.35-.7,6.42,3.85.05,3.92-2.83,5.28-5.97,6.16-1.27.36-2.71.5-4,.31-6.11-.92-12.15-1.24-18.32-.06-3.4.65-6.67-.68-9.01-3.46-3.41-4.05-2.33-7.77,2.86-8.22,5.91-.52,7.61-3.69,7.57-8.83-.04-4.9-.02-9.8,0-14.7.02-5.13-1.26-9.66-5.59-12.96-3.28-2.51-2.93-4.93.03-7.67,8.32-7.68,7.64-25.85-1.32-32.96-2.81-2.23-2.96-4.19-.93-6.68,2.16-2.65,4.94-4.54,8.12-5.74,5.09-1.93,4.08,3.5,5.98,5.3,3.4,3.24,5.37,6.46,10.93,2.13,5.51-4.29,12.98-4.68,20.01-4,6.17.59,11.92.92,16.71-4.29,2.14-2.33,4.68-1.08,3.78,2.08-1.99,6.94.75,13.13,2.03,19.6,1.11,5.62.26,10.54-4.98,14.1-5.19,3.52-9.86.67-14.61-.87-2.03-.66-3.24-2.58-3.21-4.7.02-1.65,1.69-2.01,3.05-1.83,4.4.58,6.22-1.89,6.63-5.65.48-4.45-1.55-7.73-5.58-9.72-5.92-2.93-15.16-1.13-20.71,3.57-7.06,5.98-8.18,13.92-8.04,20.16Z"/>
  <path class="cls-1" d="M530.32,61.22c0,3.79.3,7.61-.07,11.36-.58,5.81,1.27,9.69,6.9,12.16,4.73,2.07,3.73,5.12-.22,7.16-3.11,1.61-5.22,3.66-4.79,7.22,1.23,10.09-1.25,19.92-1.77,29.88-.36,6.83,3.3,9.55,9.98,8.02,1.54-.35,3.46-2.26,4.7.06.83,1.56.19,3.37-.71,5.07-3.98,7.51-10.86,10.21-18.53,6.48-2.9-1.41-5.03-1.36-8.01-.42-5.46,1.72-13.09-1.78-15.74-6.43-1.3-2.27-1.92-4.8-.39-6.93,1.55-2.15,3.76-.6,5.43.27,4.01,2.09,6.04.46,6.39-3.44.94-10.62,2.77-21.21,1.01-31.94-.64-3.92-1.99-7.17-5.51-9.43-4.34-2.78-4.46-5.56.8-7.2,4.94-1.53,6.39-4.45,5.81-9.47-.82-7.14,1.57-14.14,1.81-21.25.1-2.87.25-5.89-.5-8.6-1.21-4.3-3.4-8.03-9.1-6.09-2.1.71-4.18.7-5.26-1.47-1.12-2.25-.32-4.27,1.54-5.97,2.75-2.53,6.48-4.79,9.6-4.11,6.79,1.48,12.95-.64,19.38-1.31,3.15-.33,6.21.08,8.56,2.79,1.9,2.19,4.76,4.23,3.45,7.39-1.23,2.97-4.36,1.26-6.55,1.05-4.98-.47-7.14,2.11-7.51,6.45-.52,6.21-.65,12.45-.95,18.68.08,0,.17,0,.25.01Z"/>
  <path class="cls-1" d="M257.27,92.65c0,5.8-.35,11.62.07,17.38.91,12.23,10.84,17.9,22.02,12.93,3.26-1.44,3.98-3.94,3.64-7.09-.43-3.97-1.91-7.75-1.64-11.87.27-4.02-2.81-2.27-4.76-2.18-1.86.09-4.21,1.9-5.33-.73-1.16-2.71.75-4.65,2.86-6.11,2.83-1.95,23.56-1.58,26.46.42,1.28.89,2.78,1.76,2.42,3.64-.41,2.14-2.32,2.04-3.75,1.73-6.94-1.49-8.09,2.85-8.25,8.02-.17,5.69-1.49,11.84,5.4,15.13,1.18.56,2.05,1.82,1.41,3.36-.66,1.6-2.17,1.42-3.46,1.31-6.53-.51-12.11,1.8-17.86,4.71-11.99,6.06-32.01-5.69-33.76-19.48-.36-2.86-.18-5.79-.31-8.69-.21-4.75-.63-9.31-5.34-12.24-2.55-1.59-3.24-4.4-.1-5.72,5.66-2.38,5.43-6.81,5.53-11.63.29-13.8,9.25-25.19,21.51-27.85,2.69-.58,5.32-.8,7.96.03,6.34,2,12.59,2.9,18.95-.15,2.06-.99,4.58-.8,6.13,1.25,1.37,1.81-.21,3.21-1.16,4.72-3.69,5.89-2.75,14.43,2.04,19.74,1.26,1.39,4.02,2.37,2.7,4.69-1.34,2.36-4.26,1.64-6.11.79-2.94-1.34-5.67-.47-8.52-.38-1.79.06-3.62-.42-4.59-2.22-1.09-2.01.23-3.17,1.51-4.57,4.54-4.99,2.79-11.35-3.81-14.27-8.58-3.8-17.31.17-20.28,9.46-2.7,8.43-2.23,17.16-1.56,25.85Z"/>
  <path class="cls-1" d="M314.17,46.08c5.24,2.63,10.76,2.51,16.9.26,3.55-1.3,7.17,2.21,9.22,5.45,1.64,2.58-.25,3.24-2.79,3.35-8.89.39-8.37.51-9,9.41-1.2,16.9.23,33.78-.34,50.66-.23,6.75,3.42,9.38,13.42,10.16,5.23.41,12.22-4.3,12.74-8.83.4-3.52-.94-6.11-4.89-6.66-1.63-.23-3.29-.7-3.03-2.75.22-1.75,1.74-2.48,3.36-2.78,4-.76,7.47.09,10.42,3.09,2.95,3.01,4.15,6.3,2.42,10.3-.97,2.25-1.96,4.49-3.11,6.65-1.47,2.75-2.21,5.4.25,7.98,1.01,1.06,1.6,2.44.85,3.61-.79,1.23-2.71,1.33-3.67.6-4.88-3.68-10.08-2.06-15.36-1.59-2.79.25-5.94-.32-8.51-1.45-4.12-1.81-7.55-2.41-11.84.07-4.42,2.56-8.24-.1-10.91-3.84-1.46-2.05-1.6-4.42,1.54-5.19,2.64-.65,3.79-2.36,3.94-4.72.47-7.32,3.04-15.58.52-21.73-2.65-6.47-3.12-9.57.65-15.93,3.03-5.11,2.11-13.4,1.25-20.33-.52-4.18-2.32-7.2-7.12-7.34-2.17-.07-5.37,1.8-5.63-2.36-.23-3.63,2.33-4.99,5.47-5.57.88-.16,1.76-.28,3.24-.51Z"/>
  <path class="cls-1" d="M377.59,108.82c1.2-6.43,1.51-13.17-6.25-17.83-4.27-2.56-.77-5.35,1.72-6.28,4.14-1.55,4.22-4.37,4.29-7.89.12-5.77.85-11.54,1.02-17.31.22-7.84-2.31-10.17-10.13-9.8-1.1.05-2.4.5-3.09-.59-.77-1.22-.41-2.63.39-3.74,2.8-3.9,7.01-4.77,11.35-4.34,3.17.31,5.83.46,8.93-1.1,4.88-2.46,13.17.63,16.09,5.16.74,1.15,1.65,2.33.86,3.65-.82,1.38-2.4.96-3.68.82-9.13-1.01-10.12-.02-10.16,9.23-.02,5.1-.47,10.21-.87,15.3-.4,5.05-.37,9.8,4.7,12.94,3.07,1.9,1.51,4.25-.62,5.08-4.29,1.67-3.64,4.83-3.65,8.2-.03,6.67-.77,13.36-.51,20.01.29,7.39,3,8.94,9.79,6.46,1.09-.4,2.21-.87,3.17-.17,1.31.95.96,2.42.48,3.67-1.93,5.04-6.08,7.38-11.05,6.97-4.51-.37-8.82-.13-13.24.49-3.42.47-6.91-.19-9.24-2.91-1.66-1.94-3.63-5.62.88-5.88,7.53-.44,7.72-5.41,8.24-10.59.29-2.88.36-5.77.57-9.53Z"/>
  <path class="cls-7" d="M285.52,168.83c-7.49-3.05-15.29-4.59-24.15-4.13,5.73-3.99,13.63-3.44,18.31.8,2.01,1.83,3.15.41,4.43-.86.02-2.22.09-4.45.03-6.67-.04-1.44-.59-3.01-2.34-1.89-5.85,3.75-12.24.88-18.32,1.7-4.23.57-8.68,1.05-8.44,6.39.22,4.84,4.55,4.42,8.19,4.7,5.7.42,11.4,1.15,17.33,3.85-8.67,4.86-16.42-2.34-24.09.98-.29.12-1.21-.64-1.51-1.16-2.72-4.79-7.69-7.41-11.08-11.52-6.26-7.61-7.1-7.12-14.56-.78-5.15,4.38-5.46,13.26-13.91,14.31-.74.09-1.06,1.34-.66,2.29.54,1.25,1.68,1.39,2.8,1.31,4.22-.33,8.44-.7,12.66-1.11,1.73-.16,4,0,3.95-2.51-.05-2.38-2.26-1.46-3.64-1.72-.99-.19-2.46.35-2.65-1.14-.09-.65.58-1.7,1.21-2.1,3.54-2.26,14.85-.21,18.17,3.4-1.69.26-3.21.41-4.69.74-1.47.33-3.36.43-3.19,2.63.17,2.22,1.99,2.06,3.53,2.03,11.82-.23,23.59,1.58,35.42.59,6.65-.56,8.78-3.37,7.2-10.13ZM235.47,164.81c-1.01.07-2.57-.32-2.16-1.35.45-1.15,1.86-2.73,3.51-2.24,1,.3,2.77,1.32,2.83,2.78-.57,1.55-2.93.73-4.18.81Z"/>
  <path class="cls-6" d="M361.14,172.63c-2.03-.42-4.57,1.09-6.05-1.52-2.95-5.22-8.2-8.12-12.37-12.11-5.7-5.46-8.46-4.82-13.22,1.78-3.2,4.44-4.27,10.29-9.39,13.5-2.01,1.26-.56,3.07.91,3.49,3.46,1,7.17,1.27,10.57-.03,2.22-.85,3.15-2.63.28-4.27-1-.57-2.96-.48-2.15-2.51.59-1.47,2.15-1.53,3.41-1.74,1.98-.32,4.01-.35,5.04-.43,2.1,0,3.23-.12,4.32.02,3.67.47,8.75-.03,2.51,5.48-2.42,2.13.27,3.87,2.72,3.82,4.66-.11,9.32-.54,13.97-.91,1.19-.1,2.22-.82,2.14-2.11-.09-1.53-1.2-2.14-2.69-2.46ZM335.73,164.81c-1,.08-2.42.04-1.46-1.47.66-1.04,1.16-2.61,2.81-2.12,1,.3,3.37,1.07,3.42,2.54-.6,1.54-3.58.96-4.77,1.05Z"/>
  <path class="cls-4" d="M216.14,155.49c-7.55-.51-15.14-.53-22.71-.62-1.23-.01-2.88.22-3.15,1.84-.11.65.54,1.89,1.13,2.11,4.13,1.55,3.09,4.81,2.74,8.5-.38,2.61,1.26,6.34-3.08,8.66-1.84.98-1.17,3.38,1.45,3.44,4,.1,8.03,0,12.03-.33,1.47-.13,3.2-1.05,2.87-3.03-.41-2.43-2.24-1.57-3.67-1.14-2.38.72-4.01.19-4.33-2.46-.39-3.27,2.14-2.74,4.03-2.86,4.22-.28,8.48-.23,12.67-.77,3.92-.51,6.47-2.59,6.41-7.07-.06-4.35-2.91-6.03-6.39-6.27ZM207.5,165.01c-2.69.04-7.97,2.3-7.82-2.95.15-5.22,5.26-2.43,7.34-3.02,4.76.19,10.13-.97,10.01,3.4-.12,4.16-6.06,2.52-9.53,2.57Z"/>
  <path class="cls-5" d="M303.45,177.98c-1.34.09-2.68.26-4.02.26-2.04,0-5.01,1.85-5.76-1.24-.81-3.37,2.56-2.83,4.56-3.27,2.66-.59,3.06-2.62,2.58-4.61-.68-2.82,1.3-6.56-2.21-8.37-2.76-1.41-4.49.1-5.54,2.9-.48,1.28-2.11,1.74-3.46.95-1.91-1.13-1.08-3.2-1.33-4.86-.29-1.87.02-3.87,2.41-3.96,8.7-.35,17.4-.66,26.1-.67,3.97,0,3.34,3.44,3.51,5.98.12,1.8.04,4.01-2.27,4.14-2.68.14-4.65-.65-3.91-4.39.44-2.23-2.25-1.53-3.56-1.47-1.87.09-4.08-.2-4.73,2.59-1.17,4.97,1.64,10.04,6.67,11.53,1.32.39,2.69.67,2.53,2.47-.15,1.71-1.42,2.14-2.84,2.16-2.91.06-5.82.02-8.73.02,0-.05,0-.1,0-.15Z"/>
  <path class="cls-2" d="M264.56,20.14c-.15-3.28,3.1-7.19-2.29-8.11-1.73-.29-.94-2.25.33-2.94,3.19-1.75,6.46-1.06,9.67.12,1,.37,1.51,1.71.92,2.05-5.3,3.11-2.12,7.99-2.58,12.02-.4,3.47-1.59,4.45-4.66,2.77-6.02-3.29-12-6.63-18.25-10.09-1.28,1.68-1.24,3.3-.31,4.86.89,1.51,4.33,1.88,2.66,4.42-1.3,1.97-3.96,1.65-6.21,1.6-1.78-.04-3.57.11-5.35.03-1.19-.06-2.26-.73-2.12-2.01.07-.68.94-1.77,1.54-1.83,5.92-.62,4.18-4.28,3.45-7.82-.43-2.08-1.77-4.73.07-6.33,2.3-1.99,4.66.32,6.65,1.43,5.59,3.11,11.01,6.52,16.5,9.81Z"/>
  <path class="cls-4" d="M283.46,7.75c4.22.39,8.22-.23,9.39,5.56.43,2.12,3.91,6.28,7.68,1.95.87-.99,3.36-2.17.07-3.69-1.93-.89-.66-2.49.52-2.95,4.07-1.6,8.29-1.71,12.5-.43.96.29,1.61,1.08,1.31,1.97-.24.7-1.06,1.64-1.69,1.7-4.47.43-7.03,3.7-9.81,6.5-2.43,2.45-6.11,5.16.74,7.18,2.61.77,1.61,3.22-.6,3.47-3.49.39-6.93,1.86-10.56.86-1.23-.34-2.92.05-3.18-1.7-.25-1.74,1.2-2.15,2.56-2.38,4.36-.75,3.17-3.19,1.2-5.04-3.39-3.2-6.81-6.47-11.26-8.27-1.82-.74-5.47.28-4.47-3.21.69-2.38,3.87-1.17,5.6-1.52Z"/>
  <path class="cls-3" d="M222.37,6.75c3.28.81,4.69,3.49,3.61,5.98-1.48,3.41-1.09,6.09.53,9.09.74,1.39.92,3.18-.47,4.28-1.31,1.05-2.49-.32-3.52-.97-3.86-2.43-7.96-3.8-12.59-3.42-1.4.11-2.81-.39-3.15-1.87-.14-.62.54-1.89,1.15-2.14,5.3-2.17,10.73-4.08,12.61-10.38.1-.34,1.18-.39,1.83-.58Z"/>
  <path class="cls-4" d="M325.06,18.5c-.36-1.9-.74-3.19-.82-4.51-.1-1.79-.02-3.68,2.12-4.38,1.93-.62,2.79.84,3.64,2.15,1.82,2.81,4.44,4.18,7.74,4.56,1.27.15,2.86.69,2.76,2.29-.11,1.74-1.9,1.71-3.12,1.73-3.53.06-5.55,1.9-7.33,4.79-.93,1.5-1.9,4.62-4.92,2.88-2.67-1.54-2.19-4.08-1.41-6.47.4-1.23,1.03-2.37,1.33-3.05Z"/>
</svg>